<?xml version="1.0" standalone="no"?>
<!DOCTYPE svg PUBLIC "-//W3C//DTD SVG 1.1//EN" "http://www.w3.org/Graphics/SVG/1.1/DTD/svg11.dtd" >
<svg xmlns="http://www.w3.org/2000/svg" xmlns:xlink="http://www.w3.org/1999/xlink" version="1.1">
<metadata></metadata>
<defs>
<font id="ttfirs-mediumuploaded_file" horiz-adv-x="1105" >
<font-face units-per-em="2048" ascent="1575" descent="-473" />
<missing-glyph horiz-adv-x="358" />
<glyph horiz-adv-x="0" />
<glyph horiz-adv-x="0" />
<glyph unicode="&#xd;" horiz-adv-x="0" />
<glyph unicode=" "  horiz-adv-x="358" />
<glyph unicode="&#x09;" horiz-adv-x="358" />
<glyph unicode="&#xa0;" horiz-adv-x="358" />
<glyph unicode="!" horiz-adv-x="491" d="M154 72q0 39 26 65q27 27 66 27q38 0 65 -27t27 -65q0 -39 -27 -66q-26 -26 -65 -26q-40 0 -66 26t-26 66zM174 696v717h143v-717l-30 -278h-82z" />
<glyph unicode="&#x22;" horiz-adv-x="655" d="M123 1137v276h113v-276l-21 -215h-72zM420 1137v276h112v-276l-20 -215h-72z" />
<glyph unicode="#" horiz-adv-x="1331" d="M41 399v123h266l103 369h-236v123h277l112 399h133l-112 -399h338l112 399h133l-112 -399h235v-123h-276l-103 -369h246v-123h-287l-112 -399h-133l112 399h-338l-112 -399h-133l112 399h-225zM440 522h338l103 369h-338z" />
<glyph unicode="$" horiz-adv-x="1095" d="M82 451l133 20q15 -44 41 -80q26 -37 66 -64q40 -28 93 -44q56 -17 128 -17q80 0 140 18q61 18 99 46q41 30 59 65q19 37 19 76q0 61 -54 93q-52 30 -134 52q-77 20 -175 39q-94 18 -175 53q-84 37 -135 93q-54 60 -54 162q0 59 25 115t69 96q45 40 110 66t144 30v205 h133v-205q153 -8 247 -89q93 -81 132 -198l-133 -20q-16 37 -40 72q-26 37 -60 59q-38 24 -87 39q-46 14 -120 14q-153 0 -220 -53t-67 -131q0 -68 55 -103q54 -34 134 -57q72 -20 175 -40q101 -19 175 -50q82 -34 134 -89q54 -57 54 -153q0 -57 -27 -113q-25 -52 -78 -100 q-50 -46 -120 -76q-73 -32 -154 -39v-204h-133v204q-81 5 -144 31q-66 27 -114 70q-48 42 -85 96q-33 48 -56 111z" />
<glyph unicode="%" horiz-adv-x="1454" d="M61 1106q0 73 25 140q24 64 68 111q43 46 98 71q57 26 117 26q59 0 116 -26t99 -71q43 -46 67 -111q25 -67 25 -140q0 -75 -25 -141q-25 -65 -67 -110q-44 -47 -99 -72q-54 -25 -116 -25q-63 0 -117 25t-98 72t-68 110q-25 66 -25 141zM184 1106q0 -46 16 -91 q15 -42 42 -72t59 -46t68 -16q35 0 67 16q34 17 60 46q27 30 42 72t15 91t-15 91t-42 72q-26 29 -60 46q-32 16 -67 16q-36 0 -68 -16t-59 -46t-42 -72q-16 -45 -16 -91zM215 0l870 1413h154l-870 -1413h-154zM778 307q0 73 25 140q24 65 67 111q44 46 99 72q54 25 116 25 q63 0 117 -25t98 -72t68 -111q25 -67 25 -140q0 -75 -25 -141q-24 -63 -68 -110q-43 -46 -98 -71q-57 -26 -117 -26q-59 0 -116 26t-99 71t-67 110q-25 66 -25 141zM901 307q0 -49 15 -91t42 -72q26 -29 60 -46q32 -16 67 -16q36 0 68 16t59 46t42 72q16 45 16 91t-16 91 q-15 42 -42 72t-59 46t-68 16q-35 0 -67 -16q-34 -17 -60 -46q-27 -30 -42 -72t-15 -91z" />
<glyph unicode="&#x26;" horiz-adv-x="1208" d="M82 358q0 71 16 129q16 57 44 109q24 44 63 88q38 43 71 68q84 68 195 108v10l-256 400v143h819v-133h-655v-10l829 -1270h-164l-81 123h-11q-45 -55 -104 -92q-56 -37 -129 -64q-75 -28 -176 -28q-107 0 -190 32q-86 33 -145 89q-60 57 -93 134q-33 76 -33 164zM225 358 q0 -56 24 -109t65 -91q42 -39 101 -63q56 -23 128 -23q80 0 139 26q60 26 106 60q57 40 93 88l-338 512q-93 -34 -160 -88q-58 -45 -109 -124q-49 -76 -49 -188z" />
<glyph unicode="'" horiz-adv-x="358" d="M123 1137v276h113v-276l-21 -215h-72z" />
<glyph unicode="(" horiz-adv-x="706" d="M123 594q0 117 19 216q18 96 53 189q34 91 73 162t84 133q100 139 232 242l61 -102q-107 -93 -190 -222q-33 -51 -69 -119q-28 -54 -60 -144q-26 -72 -43 -166q-17 -91 -17 -189q0 -99 17 -190t43 -166q31 -89 60 -145q38 -73 69 -120q83 -128 190 -219l-61 -102 q-134 102 -232 239q-42 58 -84 134q-40 73 -73 161q-34 91 -53 191q-19 99 -19 217z" />
<glyph unicode=")" horiz-adv-x="706" d="M61 -246q107 92 189 219q31 47 69 120q35 67 62 145q26 75 43 166q16 86 16 190q0 103 -16 189q-17 94 -43 166q-28 78 -62 144q-36 68 -69 119q-82 128 -189 222l62 102q127 -100 229 -242q42 -59 85 -133q43 -76 74 -162q31 -87 52 -189t21 -216q0 -115 -21 -217 q-22 -107 -52 -191t-74 -161q-45 -79 -85 -134q-100 -140 -229 -239z" />
<glyph unicode="*" horiz-adv-x="757" d="M82 1075v103h246v235h102v-235h246v-103h-205l143 -205l-82 -61l-153 215l-154 -215l-82 61l144 205h-205z" />
<glyph unicode="+" horiz-adv-x="860" d="M41 563v133h328v338h123v-338h327v-133h-327v-338h-123v338h-328z" />
<glyph unicode="," horiz-adv-x="317" d="M61 -184l62 174q-17 8 -27 18q-8 8 -17 26q-7 14 -7 38q0 39 26 65q27 27 66 27q38 0 65 -27t27 -65q0 -15 -5 -32q-4 -14 -11 -26q-3 -6 -8.5 -14t-6.5 -10l-102 -174h-62z" />
<glyph unicode="-" horiz-adv-x="808" d="M41 563v133h727v-133h-727z" />
<glyph unicode="." horiz-adv-x="307" d="M61 72q0 38 27 65t66 27q38 0 65 -27t27 -65q0 -39 -27 -66q-26 -26 -65 -26q-40 0 -66 26q-27 27 -27 66z" />
<glyph unicode="/" horiz-adv-x="778" d="M41 0l553 1413h143l-553 -1413h-143z" />
<glyph unicode="0" horiz-adv-x="1474" d="M102 707q0 167 54 314q52 143 141 243q87 98 203 155q115 56 237 56q123 0 238 -56q116 -57 203 -155q88 -100 141 -243q53 -144 53 -314q0 -171 -53 -315q-52 -141 -141 -242q-88 -100 -203 -156q-113 -55 -238 -55q-124 0 -237 55q-115 56 -203 156q-89 101 -141 242 q-54 147 -54 315zM246 707q0 -145 42 -264q41 -117 111 -200q70 -84 158 -127q90 -44 180 -44q91 0 181 44q86 42 157 127t112 200q42 119 42 264t-42 263q-41 115 -112 200t-157 127q-90 44 -181 44q-90 0 -180 -44q-88 -43 -158 -127q-70 -83 -111 -200q-42 -118 -42 -263 z" />
<glyph unicode="1" horiz-adv-x="614" d="M61 1044v123q54 0 102 21t85 55q36 33 58 79t22 91h133v-1413h-144v1147q-29 -31 -63 -51q-32 -21 -80 -36q-50 -16 -113 -16z" />
<glyph unicode="2" horiz-adv-x="1187" d="M72 0v123q0 137 64 234q63 96 161 169q92 69 210 128q114 57 210 114t161 125q64 67 64 162q0 61 -24 113t-70 92q-45 39 -107 60t-137 21q-165 0 -255 -74t-134 -192l-143 21q22 78 67 146q44 68 111 121q65 52 154 82q88 30 200 30q106 0 196 -32t152 -88 q66 -60 99 -133q34 -75 34 -167q0 -122 -64 -205t-161 -150q-85 -59 -210 -121q-118 -59 -210 -118q-96 -61 -160 -139q-65 -79 -65 -189h881v-133h-1024z" />
<glyph unicode="3" horiz-adv-x="1208" d="M51 348l144 31q27 -67 65 -122q39 -57 91 -97q54 -42 118 -65q63 -23 145 -23q83 0 148 26q68 27 117 73t76 108q28 64 28 131t-28 131q-27 61 -76 107t-117 73t-148 27h-194v133l440 389v10h-686v133h901v-133l-440 -389v-10q107 0 198 -36q88 -35 155 -100 q64 -63 102 -149q36 -82 36 -186q0 -105 -36 -187q-38 -86 -105 -149q-69 -65 -162 -100q-92 -35 -209 -35t-206 32q-95 34 -163 88q-72 57 -119 130q-48 75 -75 159z" />
<glyph unicode="4" horiz-adv-x="1208" d="M61 317v134l492 962h154l-492 -962h635v399h143v-399h195v-134h-195v-317h-143v317h-789z" />
<glyph unicode="5" horiz-adv-x="1177" d="M20 348l144 31q27 -67 65 -122t92 -97q55 -42 117 -65q63 -23 146 -23q82 0 147 26q68 27 117 73q50 47 77 108t27 131t-27 131q-26 59 -77 107q-49 46 -117 73q-67 27 -147 27h-379l112 665h717v-133h-594l-71 -399h215q114 0 209 -36q91 -35 161 -100q67 -63 105 -149 q37 -84 37 -186q0 -103 -37 -187q-38 -86 -105 -149q-70 -65 -161 -100q-92 -35 -209 -35q-118 0 -207 32q-95 34 -163 88q-72 57 -119 130q-48 75 -75 159z" />
<glyph unicode="6" horiz-adv-x="1208" d="M82 451q0 79 19 140q19 62 42 109q28 55 62 99l471 614h164l-369 -481h10q33 12 39 14q20 7 46 11q36 6 67 6q110 0 203 -40t162 -109q68 -68 109 -163q40 -93 40 -200q0 -110 -40 -202q-41 -93 -111 -162q-70 -68 -169 -109q-95 -39 -213 -39t-213 39q-99 41 -169 109 q-69 67 -110 162q-40 92 -40 202zM225 451q0 -80 29 -150q29 -71 81 -121q54 -52 124 -80q71 -28 155 -28q85 0 156 28q70 28 124 80q52 50 81 121q29 70 29 150q0 79 -29 149q-29 71 -81 121q-54 52 -124 80q-71 28 -156 28q-84 0 -155 -28q-70 -28 -124 -80 q-52 -50 -81 -121q-29 -70 -29 -149z" />
<glyph unicode="7" horiz-adv-x="972" d="M20 1280v133h922v-143l-594 -1270h-153l593 1270v10h-768z" />
<glyph unicode="8" horiz-adv-x="1269" d="M82 379q0 118 51 193t113 116q71 49 164 70v10q-77 23 -134 63q-50 34 -92 96q-41 61 -41 158q0 74 35 144q35 69 100 124q64 54 155 88q90 34 202 34t202 -34q91 -34 155 -88q65 -55 100 -124q34 -68 34 -144q0 -96 -42 -157q-44 -64 -91 -97q-60 -41 -133 -63v-10 q93 -21 164 -70q62 -41 113 -116t51 -193q0 -85 -39 -164t-111 -141t-174 -99q-98 -36 -229 -36t-229 36q-104 38 -175 99q-70 60 -110 141q-39 79 -39 164zM225 379q0 -55 28 -113q25 -52 81 -98q51 -43 129 -70q74 -26 172 -26t172 26q78 27 129 70q56 46 81 98 q27 56 27 113q0 62 -27 119q-26 56 -81 101q-54 44 -129 71q-74 26 -172 26t-172 -26q-75 -27 -129 -71q-55 -45 -81 -101q-28 -59 -28 -119zM287 1085q0 -47 24 -92q23 -43 70 -82q43 -36 109 -59t145 -23q78 0 144 23q67 24 110 59q45 38 69 82q25 47 25 92q0 44 -25 92 q-23 45 -69 83q-43 35 -110 59q-63 22 -144 22q-82 0 -145 -22q-66 -23 -109 -59q-48 -40 -70 -83q-24 -47 -24 -92z" />
<glyph unicode="9" horiz-adv-x="1208" d="M61 963q0 107 40 200q40 94 111 163q70 68 169 109q98 40 213 40t213 -40q99 -41 169 -109q69 -68 110 -163q40 -93 40 -200q0 -81 -19 -142q-20 -64 -42 -110q-29 -57 -61 -97l-472 -614h-163l368 481h-10q-25 -11 -39 -16q-17 -5 -48 -10q-24 -4 -67 -4q-111 0 -201 39 q-94 41 -162 109t-109 162q-40 92 -40 202zM205 963q0 -82 28 -150q29 -71 81 -121q54 -52 124 -80q71 -28 156 -28t156 28q69 27 123 80q52 50 81 121q29 70 29 150q0 79 -29 149q-29 71 -81 121q-54 53 -123 80q-71 28 -156 28t-156 -28q-70 -28 -124 -80 q-52 -50 -81 -121q-28 -68 -28 -149z" />
<glyph unicode=":" horiz-adv-x="307" d="M61 72q0 38 27 65t66 27q38 0 65 -27t27 -65q0 -39 -27 -66q-26 -26 -65 -26q-40 0 -66 26q-27 27 -27 66zM61 881q0 38 27 65t66 27q38 0 65 -27t27 -65q0 -39 -27 -66t-65 -27q-39 0 -66 27t-27 66z" />
<glyph unicode=";" horiz-adv-x="317" d="M61 -184l62 174q-17 8 -27 18q-8 8 -17 26q-7 14 -7 38q0 39 26 65q27 27 66 27q38 0 65 -27t27 -65q0 -15 -5 -32q-4 -14 -11 -26q-3 -6 -8.5 -14t-6.5 -10l-102 -174h-62zM72 881q0 39 26 65q27 27 66 27q38 0 65 -27t27 -65q0 -39 -27 -66t-65 -27q-39 0 -66 27 q-26 26 -26 66z" />
<glyph unicode="&#x3c;" horiz-adv-x="993" d="M82 389v154l829 358v-133l-686 -297v-10l686 -297v-133z" />
<glyph unicode="=" horiz-adv-x="880" d="M82 379v123h717v-123h-717zM82 748v122h717v-122h-717z" />
<glyph unicode="&#x3e;" horiz-adv-x="993" d="M82 31v133l686 297v10l-686 297v133l829 -358v-154z" />
<glyph unicode="?" horiz-adv-x="1075" d="M20 1096q23 80 66 149q44 70 107 121q64 52 147 80q85 29 192 29q103 0 190 -32q84 -31 145 -86t94 -125q32 -68 32 -147q0 -99 -34 -161q-37 -68 -82 -110q-49 -46 -109 -82t-109 -79q-46 -40 -82 -100q-34 -56 -34 -143h-123q0 108 32 178q33 73 79 120q48 50 104 86 q61 40 103 75q50 43 80 89q32 50 32 127q0 45 -24 92q-24 46 -65 83q-40 35 -101 59q-57 22 -128 22q-154 0 -241 -74q-88 -74 -127 -192zM389 72q0 38 27 65t65 27q39 0 66 -27q26 -26 26 -65q0 -40 -26 -66t-66 -26q-39 0 -65 26q-27 27 -27 66z" />
<glyph unicode="@" horiz-adv-x="1669" d="M82 655q0 167 58 307q57 138 161 242q103 103 243 161t306 58q171 0 312 -51q142 -51 240 -139q99 -89 152 -203q54 -117 54 -242q0 -97 -37 -180q-37 -82 -102 -146q-63 -62 -155 -98t-198 -36h-92v71h-10q-16 -24 -47 -47q-18 -12 -62 -30q-37 -15 -86 -15 q-62 0 -119 27t-101 74t-71 110q-26 61 -26 137q0 77 26 138q27 63 71 110t101 74t119 27q46 0 86 -16q37 -15 62 -32q30 -22 47 -45h10v72h133v-532q72 0 128 23q58 24 100 69t66 106t24 139q0 107 -43 197q-45 94 -124 163q-83 72 -197 112t-261 40q-137 0 -251 -49 q-115 -49 -201 -135q-83 -83 -134 -205q-49 -117 -49 -256q0 -140 49 -257q50 -118 134 -203q87 -87 201 -136t251 -49q86 0 163 16q80 17 126 35q54 20 110 52v-123q-51 -30 -110 -51q-51 -20 -126 -36q-77 -16 -163 -16q-164 0 -306 59t-243 160q-103 103 -161 243 t-58 306zM635 655q0 -50 17 -88q19 -42 46 -71q30 -32 66 -49q35 -17 76 -17q46 0 81 20q32 18 56 42q25 25 47 61v205q-22 36 -47 61q-24 24 -56 42q-35 20 -81 20q-36 0 -76 -19q-36 -17 -66 -49q-26 -28 -46 -72q-17 -38 -17 -86z" />
<glyph unicode="A" horiz-adv-x="1372" d="M41 0l348 1413h594l348 -1413h-143l-92 358h-820l-92 -358h-143zM307 492h758l-195 788h-368z" />
<glyph unicode="B" horiz-adv-x="1382" d="M154 0v1413h604q90 0 168 -29t129 -77q53 -50 83 -114q29 -62 29 -138q0 -88 -28 -140q-29 -54 -64 -84q-39 -36 -92 -53v-10q98 -16 168 -57q33 -20 61 -45q35 -32 56 -63q24 -36 39 -84q14 -45 14 -109q0 -84 -33 -159q-33 -74 -93 -130q-59 -55 -145 -88t-190 -33 h-706zM297 133h563q71 0 132 22q59 21 100 59q40 37 63 88t23 108q0 56 -23 107t-63 88q-43 39 -100 60q-58 21 -132 21h-563v-553zM297 819h461q122 0 194 66t72 170q0 92 -72 158q-73 67 -194 67h-461v-461z" />
<glyph unicode="C" horiz-adv-x="1546" d="M82 707q0 157 60 297q58 136 161 243q99 104 233 166q133 62 273 62q131 0 238 -39q104 -38 187 -101q82 -62 134 -138q54 -79 76 -153l-144 -20q-24 62 -65 115q-43 57 -105 102q-64 47 -141 73q-79 27 -180 27q-110 0 -216 -50q-102 -48 -187 -136q-82 -85 -132 -202 q-49 -114 -49 -246q0 -135 49 -249q50 -117 132 -202q83 -86 187 -135t216 -49q108 0 192 28q86 29 151 77q67 50 112 111q48 65 77 132l144 -21q-29 -86 -88 -171q-56 -82 -143 -147q-87 -66 -196 -104q-108 -38 -249 -38q-142 0 -273 61q-134 62 -233 166 q-102 106 -161 244q-60 140 -60 297z" />
<glyph unicode="D" horiz-adv-x="1413" d="M154 0v1413h430q167 0 306 -53q134 -51 236 -147q100 -94 152 -223q53 -132 53 -283q0 -152 -53 -284q-52 -129 -152 -223q-102 -96 -236 -147q-139 -53 -306 -53h-430zM297 133h287q138 0 250 42q113 42 190 118q78 76 121 181q43 104 43 233q0 128 -43 232 q-43 105 -121 181q-77 76 -190 118q-112 42 -250 42h-287v-1147z" />
<glyph unicode="E" horiz-adv-x="1208" d="M154 0v1413h1013v-133h-870v-502h686v-133h-686v-512h870v-133h-1013z" />
<glyph unicode="F" horiz-adv-x="1157" d="M154 0v1413h972v-133h-829v-543h666v-133h-666v-604h-143z" />
<glyph unicode="G" horiz-adv-x="1587" d="M82 707q0 159 60 299q58 136 161 243q100 104 232 165q133 61 274 61q131 0 238 -39q104 -38 187 -101q82 -62 134 -138q54 -79 76 -153l-144 -20q-24 62 -65 115q-43 57 -105 102q-64 47 -141 73q-79 27 -180 27q-110 0 -216 -50q-102 -48 -187 -136q-82 -85 -132 -202 q-49 -114 -49 -246q0 -135 49 -249q50 -117 132 -202q83 -86 187 -135t216 -49q114 0 216 42q100 41 176 111q74 68 118 158q43 87 43 180h-471v133h614v-61q0 -152 -52 -278q-53 -129 -145 -221q-91 -91 -222 -145q-126 -52 -277 -52q-143 0 -274 60q-132 61 -232 165 q-102 106 -161 244q-60 140 -60 299z" />
<glyph unicode="H" horiz-adv-x="1402" d="M154 0v1413h143v-635h809v635h143v-1413h-143v645h-809v-645h-143z" />
<glyph unicode="I" horiz-adv-x="450" d="M154 0v1413h143v-1413h-143z" />
<glyph unicode="J" horiz-adv-x="1095" d="M20 266l144 31q31 -94 105 -159q75 -66 192 -66q76 0 135 26q61 27 106 76q46 50 71 122q26 73 26 165v952h143v-952q0 -119 -36 -215q-36 -97 -100 -165t-153 -106q-85 -36 -192 -36q-89 0 -162 27t-131 74q-60 49 -95 105q-39 62 -53 121z" />
<glyph unicode="K" horiz-adv-x="1269" d="M154 0v1413h143v-778l747 778h185l-533 -553l553 -860h-164l-491 758l-297 -307v-451h-143z" />
<glyph unicode="L" horiz-adv-x="1136" d="M154 0v1413h143v-1280h819v-133h-962z" />
<glyph unicode="M" horiz-adv-x="1720" d="M154 0v1413h153l553 -676l553 676h154v-1413h-144v1198h-10l-553 -676l-553 676h-10v-1198h-143z" />
<glyph unicode="N" horiz-adv-x="1423" d="M154 0v1413h153l809 -1167h10v1167h144v-1413h-154l-809 1167h-10v-1167h-143z" />
<glyph unicode="O" horiz-adv-x="1658" d="M82 707q0 155 60 294t164 245q104 105 239 167q136 62 284 62q149 0 285 -62q137 -62 239 -166q106 -107 164 -243q60 -140 60 -297t-60 -297q-59 -138 -164 -244q-102 -104 -239 -166q-134 -61 -285 -61q-150 0 -284 61q-137 62 -239 166q-105 106 -164 244 q-60 140 -60 297zM225 707q0 -130 50 -247q49 -114 134 -202q84 -87 192 -136q111 -50 228 -50q118 0 229 50q108 49 192 136t133 202q51 119 51 247q0 127 -51 246q-49 115 -133 202t-192 136q-111 50 -229 50q-117 0 -228 -50q-108 -49 -192 -136q-85 -88 -134 -202 q-50 -117 -50 -246z" />
<glyph unicode="P" horiz-adv-x="1372" d="M154 0v1413h594q121 0 223 -38q101 -37 171 -105q69 -66 109 -160q39 -91 39 -199q0 -107 -39 -199t-109 -159q-72 -69 -171 -106t-223 -37h-451v-410h-143zM297 543h451q92 0 165 27t126 77t80 117q28 70 28 147q0 78 -28 148q-27 67 -80 117q-52 49 -126 76 q-76 28 -165 28h-451v-737z" />
<glyph unicode="Q" horiz-adv-x="1669" d="M82 707q0 155 60 294t164 245q104 105 239 167q136 62 284 62q149 0 285 -62q137 -62 239 -166q106 -107 164 -243q60 -140 60 -297q0 -116 -29 -209t-63 -158q-40 -77 -92 -135l215 -215l-103 -103l-215 215q-53 -42 -127 -82q-65 -32 -144 -56q-84 -25 -190 -25 q-150 0 -284 61q-137 62 -239 166q-105 106 -164 244q-60 140 -60 297zM225 707q0 -130 50 -247q49 -114 134 -202q84 -87 192 -136q111 -50 228 -50q90 0 154 20q70 22 115 45q53 27 100 68l-143 143l102 103l143 -144q37 44 66 107q26 57 46 127q22 77 22 166 q0 127 -51 246q-49 115 -133 202t-192 136q-111 50 -229 50q-117 0 -228 -50q-108 -49 -192 -136q-85 -88 -134 -202q-50 -117 -50 -246z" />
<glyph unicode="R" horiz-adv-x="1392" d="M154 0v1413h634q114 0 208 -35q93 -34 159 -96q66 -61 100 -145q35 -85 35 -185q0 -70 -13 -122q-13 -53 -36 -97q-23 -43 -51 -75q-26 -29 -60 -56q-70 -56 -157 -80l287 -522h-154l-277 492h-532v-492h-143zM297 625h491q82 0 147 25q67 26 114 70t72 103q26 61 26 129 t-26 129t-72 104q-45 43 -114 69q-67 26 -147 26h-491v-655z" />
<glyph unicode="S" horiz-adv-x="1259" d="M61 358l144 21q27 -67 65 -122t92 -97q53 -41 121 -65q65 -23 152 -23q96 0 171 24q74 24 125 67q50 42 77 95q26 51 26 111q0 68 -38 115q-36 45 -101 79q-62 33 -143 57q-53 16 -163 48q-75 22 -163 55q-79 30 -143 77q-66 49 -102 112q-38 67 -38 163q0 76 35 149 q35 72 101 128q65 54 158 89q92 34 208 34q109 0 198 -29q83 -27 152 -79q65 -49 111 -118t72 -143l-144 -31q-30 67 -60 111q-36 51 -80 84q-48 35 -108 53q-62 18 -141 18q-85 0 -150 -22t-113 -61q-47 -38 -71 -86t-24 -97q0 -92 65 -144t165 -88q107 -39 215 -67 q112 -29 215 -79q98 -48 165 -125q66 -76 66 -203q0 -85 -37 -162q-37 -76 -108 -137q-71 -60 -171 -96q-98 -35 -227 -35q-121 0 -213 32q-96 33 -166 89q-71 57 -120 134t-75 164z" />
<glyph unicode="T" horiz-adv-x="1187" d="M20 1280v133h1147v-133h-501v-1280h-144v1280h-502z" />
<glyph unicode="U" horiz-adv-x="1413" d="M154 522v891h143v-891q0 -102 31 -187q30 -82 86 -141q57 -61 130 -91q74 -31 163 -31q88 0 162 31q73 30 130 91q56 59 86 141q31 85 31 187v891h144v-891q0 -135 -40 -242t-114 -184q-72 -75 -175 -116t-224 -41q-122 0 -225 41t-175 116t-113 184q-40 107 -40 242z " />
<glyph unicode="V" horiz-adv-x="1392" d="M61 1413h144l307 -1280h369l307 1280h143l-338 -1413h-594z" />
<glyph unicode="W" horiz-adv-x="1894" d="M61 1413h144l266 -1280h72l276 1280h256l277 -1280h71l267 1280h143l-297 -1413h-297l-276 1270h-31l-277 -1270h-297z" />
<glyph unicode="X" horiz-adv-x="1259" d="M31 0q238 344 256 369q170 244 256 368l-471 676h164l389 -563h10l389 563h164l-471 -676q86 -124 256 -368q18 -25 256 -369h-164l-430 625h-10l-430 -625h-164z" />
<glyph unicode="Y" horiz-adv-x="1310" d="M20 1413h160l471 -778h8l471 778h160l-563 -942v-471h-143v471z" />
<glyph unicode="Z" horiz-adv-x="1218" d="M61 0v143l912 1127v10h-881v133h1055v-143l-911 -1127v-10h921v-133h-1096z" />
<glyph unicode="[" horiz-adv-x="645" d="M154 -287v1762h450v-134h-307v-1495h307v-133h-450z" />
<glyph unicode="\" horiz-adv-x="778" d="M41 1413h143l553 -1413h-143z" />
<glyph unicode="]" horiz-adv-x="645" d="M41 -154h307v1495h-307v134h451v-1762h-451v133z" />
<glyph unicode="^" horiz-adv-x="880" d="M82 758l297 655h123l297 -655h-133l-222 491h-8l-221 -491h-133z" />
<glyph unicode="_" horiz-adv-x="727" d="M0 -246h727v-133h-727v133z" />
<glyph unicode="`" horiz-adv-x="501" d="M61 1300l62 123l317 -184l-41 -82z" />
<glyph unicode="a" d="M72 471q0 112 37 205q38 97 99 163q63 69 144 106q84 38 170 38q78 0 140 -28q59 -26 100 -60q51 -41 78 -86h10v133h133v-942h-133v133h-10q-28 -48 -78 -88q-38 -31 -100 -59q-60 -27 -140 -27q-86 0 -170 38q-81 37 -144 106q-61 66 -99 163q-37 93 -37 205zM205 471 q0 -91 26 -160q27 -72 72 -123t105 -78q62 -28 124 -28q79 0 140 35q59 34 100 78q50 53 78 112v328q-29 59 -78 113q-40 40 -100 76t-140 36q-64 0 -124 -27q-59 -26 -105 -79q-45 -51 -72 -123q-26 -69 -26 -160z" />
<glyph unicode="b" horiz-adv-x="1116" d="M133 0v1413h133v-604h10q27 45 78 86q39 32 100 60t140 28q86 0 170 -38q81 -37 144 -106q62 -68 100 -163q36 -91 36 -205t-36 -205q-38 -95 -100 -163q-63 -69 -144 -106q-84 -38 -170 -38q-82 0 -140 27q-64 29 -100 59q-50 40 -78 88h-10v-133h-133zM266 307 q28 -59 78 -112q40 -43 99 -78t141 -35q63 0 125 28q58 26 104 78q45 51 72 123q26 69 26 160t-26 160q-27 72 -72 123q-47 53 -104 79q-60 27 -125 27q-82 0 -141 -36q-60 -37 -99 -76q-49 -54 -78 -113v-328z" />
<glyph unicode="c" horiz-adv-x="1054" d="M72 471q0 107 39 201t105 163q63 65 154 108q86 40 183 40q86 0 159 -25q72 -25 124 -63t87 -89q33 -47 50 -99l-133 -31q-11 32 -35 67q-22 32 -59 60t-83 42q-48 15 -110 15q-68 0 -132 -29q-65 -29 -111 -80q-49 -54 -77 -124q-28 -71 -28 -156t28 -156 q28 -70 77 -124q46 -51 111 -80q64 -29 132 -29q131 0 209 66q77 65 108 159l134 -31q-16 -59 -53 -118q-39 -61 -92 -102q-56 -43 -133 -70q-76 -27 -173 -27t-183 40q-90 42 -154 109q-67 70 -105 161q-39 93 -39 202z" />
<glyph unicode="d" horiz-adv-x="1116" d="M72 471q0 112 37 205q38 97 99 163q63 69 144 106q84 38 170 38q78 0 140 -28q59 -26 100 -60q51 -41 78 -86h10v604h133v-1413h-133v133h-10q-28 -48 -78 -88q-38 -31 -100 -59q-60 -27 -140 -27q-86 0 -170 38q-81 37 -144 106q-61 66 -99 163q-37 93 -37 205zM205 471 q0 -91 26 -160q27 -72 72 -123t105 -78q62 -28 124 -28q79 0 140 35q59 34 100 78q50 53 78 112v328q-29 59 -78 113q-40 40 -100 76t-140 36q-64 0 -124 -27q-59 -26 -105 -79q-45 -51 -72 -123q-26 -69 -26 -160z" />
<glyph unicode="e" horiz-adv-x="1075" d="M72 471q0 109 38 205q37 94 102 163q64 69 149 106q87 38 182 38q94 0 181 -38q85 -37 149 -106q67 -71 103 -163q38 -96 38 -205l-62 -61h-747q7 -66 37 -129t74 -104q46 -43 107 -69t130 -26q73 0 123 17q55 19 93 47q39 29 67 69q25 37 41 82l133 -27 q-16 -55 -56 -115q-37 -57 -94 -100q-53 -40 -134 -69q-76 -27 -171 -27q-98 0 -188 38q-88 37 -154 106q-65 68 -103 163q-38 96 -38 205zM205 532h676q-7 68 -37 130q-28 58 -74 103q-47 46 -103 70q-57 25 -124 25t-124 -25q-58 -25 -104 -70q-45 -43 -73 -103 q-30 -62 -37 -130z" />
<glyph unicode="f" horiz-adv-x="583" d="M41 819v123h143v174q0 147 83 233q82 85 214 85q30 0 65 -7q25 -5 52 -14q23 -7 47 -20l-31 -123q-19 14 -36 20q-23 11 -41 15q-24 6 -56 6q-69 0 -116 -51q-48 -53 -48 -144v-174h256v-123h-256v-819h-133v819h-143z" />
<glyph unicode="g" d="M72 492q0 106 37 193q40 94 99 156q65 68 144 104q84 38 170 38q78 0 140 -28q59 -26 100 -60q51 -41 78 -86h10v133h133v-932q0 -96 -33 -177q-33 -80 -90 -139q-57 -58 -136 -91q-80 -33 -171 -33t-158 22q-69 22 -122 62q-52 38 -87 89q-35 50 -53 103l133 31 q29 -76 98 -131q67 -53 189 -53q132 0 214 85q83 86 83 232v164h-10q-28 -48 -78 -88q-38 -31 -100 -59q-60 -27 -140 -27q-86 0 -170 38q-79 36 -144 104q-59 62 -99 156q-37 87 -37 194zM205 492q0 -83 26 -148q27 -68 72 -117q44 -49 105 -76q62 -28 124 -28q79 0 140 35 q59 34 100 78q50 53 78 112v287q-29 59 -78 113q-40 40 -100 76t-140 36q-64 0 -124 -27q-59 -27 -105 -77q-45 -50 -72 -117q-26 -65 -26 -147z" />
<glyph unicode="h" horiz-adv-x="1095" d="M133 0v1413h133v-604h10q32 45 82 86q39 32 100 60t136 28q84 0 156 -30q70 -29 123 -85t81 -135q29 -81 29 -180v-553h-133v553q0 147 -75 227t-191 80q-78 0 -137 -36q-60 -37 -99 -76q-48 -53 -82 -113v-635h-133z" />
<glyph unicode="i" horiz-adv-x="430" d="M123 1331q0 39 27 66q26 26 65 26q40 0 66 -26t26 -66q0 -39 -26 -65q-27 -27 -66 -27q-38 0 -65 27t-27 65zM150 0v942h133v-942h-133z" />
<glyph unicode="j" horiz-adv-x="413" d="M-184 -389l30 123q19 -15 35 -21q19 -9 42 -14q25 -6 57 -6q70 0 116 49q47 50 47 135v1065h133v-1065q0 -140 -82 -223q-83 -84 -214 -84q-35 0 -65 6q-25 5 -52 14q-18 6 -47 21zM117 1331q0 40 26 66t66 26q39 0 65 -26q27 -27 27 -66q0 -38 -27 -65t-65 -27 q-39 0 -66 27q-26 26 -26 65z" />
<glyph unicode="k" horiz-adv-x="972" d="M133 0v1413h133v-973l492 502h164l-349 -358l390 -584h-144l-327 492h-11l-215 -216v-276h-133z" />
<glyph unicode="l" horiz-adv-x="450" d="M20 1290v123h297v-1413h-133v1290h-164z" />
<glyph unicode="m" horiz-adv-x="1597" d="M123 0v942h133v-133h10q26 48 64 86q32 32 80 60t112 28q85 0 143 -29q56 -28 91 -63q41 -41 65 -92h10q22 51 62 92q33 33 88 63q53 29 135 29q78 0 148 -28q64 -25 116 -81q50 -53 77 -129q28 -79 28 -172v-573h-133v573q0 130 -64 209q-63 78 -172 78q-107 0 -176 -78 q-70 -79 -70 -209v-573h-133v573q0 68 -19 119q-20 52 -51 90q-31 37 -72 58q-39 20 -83 20q-66 0 -113 -36q-49 -38 -80 -76q-33 -45 -63 -113v-635h-133z" />
<glyph unicode="n" horiz-adv-x="1085" d="M123 0v942h133v-133h10q32 45 82 86q40 33 99 60q61 28 137 28q83 0 155 -30t124 -85q53 -56 81 -135q29 -81 29 -180v-553h-133v553q0 147 -75 227t-192 80q-77 0 -136 -36q-60 -37 -99 -76q-48 -53 -82 -113v-635h-133z" />
<glyph unicode="o" horiz-adv-x="1126" d="M72 471q0 109 38 205q37 93 104 163q64 67 156 106q90 38 193 38q104 0 194 -38t155 -106q69 -72 105 -163q38 -96 38 -205t-38 -205q-36 -91 -105 -163q-65 -68 -155 -106t-194 -38q-103 0 -193 38q-92 39 -156 106q-67 70 -104 163q-38 96 -38 205zM205 471 q0 -85 28 -156t78 -124q48 -51 115 -80t137 -29q72 0 138 29t114 80q50 53 78 124q29 73 29 156t-29 156q-28 71 -78 124q-48 51 -114 80t-138 29t-138 -29t-114 -80q-50 -53 -78 -124t-28 -156z" />
<glyph unicode="p" d="M123 -410v1352h133v-133h10q27 45 78 86q40 33 99 60q61 28 141 28q86 0 170 -38q81 -37 144 -106q61 -66 99 -163q37 -93 37 -205t-37 -205q-38 -97 -99 -163q-63 -69 -144 -106q-84 -38 -170 -38q-82 0 -141 27q-61 28 -99 59q-50 40 -78 88h-10v-543h-133zM256 307 q28 -59 78 -112q40 -43 99 -78t140 -35q63 0 125 28q60 27 105 78q43 49 71 123q27 72 27 160t-27 160q-28 74 -71 123q-46 53 -105 79q-60 27 -125 27q-82 0 -140 -36q-60 -37 -99 -76q-49 -54 -78 -113v-328z" />
<glyph unicode="q" d="M72 471q0 112 37 205q38 97 99 163q63 69 144 106q84 38 170 38q78 0 140 -28q59 -26 100 -60q51 -41 78 -86h10v133h133v-1352h-133v543h-10q-28 -48 -78 -88q-38 -31 -100 -59q-60 -27 -140 -27q-86 0 -170 38q-81 37 -144 106q-61 66 -99 163q-37 93 -37 205zM205 471 q0 -91 26 -160q27 -72 72 -123t105 -78q62 -28 124 -28q79 0 140 35q59 34 100 78q50 53 78 112v328q-29 59 -78 113q-40 40 -100 76t-140 36q-64 0 -124 -27q-59 -26 -105 -79q-45 -51 -72 -123q-26 -69 -26 -160z" />
<glyph unicode="r" horiz-adv-x="624" d="M123 0v942h133v-133h10q31 46 80 86q41 34 97 60q59 28 130 28h31v-133h-41q-74 0 -130 -34t-97 -75q-48 -48 -80 -106v-635h-133z" />
<glyph unicode="s" horiz-adv-x="942" d="M41 246l133 20q15 -35 40 -67q27 -35 62 -60q38 -27 85 -42q48 -15 110 -15q70 0 121 15t86 41q32 24 52 57q18 30 18 61q0 54 -48 87q-45 31 -117 52q-62 19 -153 40q-78 18 -152 50q-71 30 -118 82t-47 140q0 53 24 103t73 88q46 36 119 61q71 24 163 24q80 0 145 -22 q62 -21 115 -58q48 -33 81 -76q32 -41 48 -79l-133 -21q-12 16 -38 46q-17 20 -53 43q-31 20 -71 32q-41 12 -94 12q-65 0 -108 -14q-47 -15 -77 -36q-31 -22 -46 -49t-15 -54q0 -59 47 -89q46 -29 118 -51q66 -20 152 -40q80 -19 153 -50q71 -30 118 -83t47 -138 q0 -58 -27 -111q-28 -54 -79 -95q-53 -43 -128 -66q-80 -25 -176 -25q-85 0 -160 25q-74 25 -125 64q-54 42 -90 92t-55 106z" />
<glyph unicode="t" horiz-adv-x="686" d="M41 819v123h143v266h133v-266h256v-123h-256v-543q0 -90 48 -143q47 -51 116 -51q32 0 56 6q23 6 41 14q14 5 36 21l31 -123q-24 -13 -47 -20q-34 -12 -52 -15q-30 -6 -65 -6q-132 0 -214 85q-83 86 -83 232v543h-143z" />
<glyph unicode="u" horiz-adv-x="1095" d="M123 389v553h133v-553q0 -147 75 -227t191 -80q77 0 136 35q61 36 100 78q50 53 82 112v635h133v-942h-133v133h-11q-34 -50 -81 -88q-36 -30 -100 -59q-58 -27 -136 -27q-84 0 -156 30t-124 85q-51 54 -80 135t-29 180z" />
<glyph unicode="v" horiz-adv-x="1013" d="M61 942h134l174 -819h276l174 819h133l-204 -942h-482z" />
<glyph unicode="w" horiz-adv-x="1433" d="M61 942h134l174 -819h61l174 819h225l175 -819h61l174 819h133l-194 -942h-277l-174 819h-20l-175 -819h-276z" />
<glyph unicode="x" horiz-adv-x="911" d="M20 0l349 492l-318 450h154l246 -348h10l246 348h153l-317 -450l348 -492h-154l-276 389h-10l-277 -389h-154z" />
<glyph unicode="y" horiz-adv-x="1013" d="M61 942h134l174 -819h276l174 819h133l-204 -942q-28 -127 -61 -206q-35 -84 -76 -132q-43 -51 -94 -71q-53 -21 -118 -21q-34 0 -64 6q-25 5 -52 14q-18 6 -47 21l30 123q19 -15 35 -21q19 -9 42 -14q25 -6 56 -6q36 0 66 15q29 15 57 50q25 31 50 95q25 62 42 147h-348 z" />
<glyph unicode="z" horiz-adv-x="911" d="M51 0v133l615 676v10h-594v123h768v-133l-615 -676v-10h635v-123h-809z" />
<glyph unicode="{" horiz-adv-x="632" d="M102 532v134h60q48 0 80 31t32 71q0 35 -14 95q-25 108 -32 135t-18 76t-13 60q-15 64 -15 95q0 123 69 189q70 67 208 67h112v-133h-112q-69 0 -107 -35q-37 -34 -37 -88q0 -29 17 -95q5 -20 17 -65.5t18 -70.5q6 -23 17.5 -68t16.5 -67q17 -66 17 -95q0 -53 -18 -86 t-40 -49q-24 -21 -55 -29v-10q31 -8 55 -29q22 -16 40 -49t18 -86q0 -29 -17 -95q-5 -21 -16.5 -66t-17.5 -69t-18 -69.5t-17 -65.5q-17 -66 -17 -96q0 -54 37 -88q38 -35 107 -35h112v-133h-112q-138 0 -208 67q-69 66 -69 189q0 32 15 96q2 8 13 57.5t18 77.5q7 27 32 135 q14 60 14 95q0 40 -32 71t-80 31h-60z" />
<glyph unicode="|" horiz-adv-x="512" d="M184 -205v1741h144v-1741h-144z" />
<glyph unicode="}" horiz-adv-x="632" d="M61 -154h113q69 0 107 35q36 33 36 88q0 33 -16 96q-5 20 -17 65.5t-18 69.5t-18 69.5t-17 65.5q-16 63 -16 95q0 54 16 86t39 49q24 21 58 29v10q-34 8 -58 29q-23 17 -39 49t-16 86q0 32 16 95q5 20 17 65.5t18 69.5q6 25 18 70.5t17 65.5q16 63 16 95q0 55 -36 88 q-38 35 -107 35h-113v133h113q138 0 208 -67q69 -66 69 -189q0 -31 -15 -95q-28 -120 -32 -136q-7 -28 -18 -77.5t-13 -57.5q-15 -65 -15 -95q0 -40 33 -71q32 -31 80 -31h59v-134h-59q-48 0 -80 -31q-33 -31 -33 -71q0 -30 15 -95q2 -8 13 -57.5t18 -77.5q7 -27 32 -135 q15 -65 15 -96q0 -123 -69 -189q-70 -67 -208 -67h-113v133z" />
<glyph unicode="~" horiz-adv-x="860" d="M61 553q0 45 18 86q20 44 46 72q31 33 65 49q38 18 76 18q63 0 104 -25q31 -19 75 -57t68 -56q35 -26 81 -26q30 0 62 38q33 39 40 116l103 -51q0 -47 -18 -88q-20 -44 -46 -72q-29 -31 -65 -48q-35 -17 -76 -17q-63 0 -104 25q-35 21 -75 56q-46 40 -69 57 q-34 25 -80 25q-30 0 -62 -38q-33 -39 -40 -115z" />
<glyph unicode="&#xa2;" horiz-adv-x="1054" d="M72 471q0 101 32 184q34 87 89 153q58 69 130 111q74 43 158 58v180h133v-178q74 -8 135 -35q61 -28 105 -64q44 -37 75 -83q28 -42 44 -90l-133 -31q-11 32 -35 67q-22 32 -59 60t-83 42q-48 15 -110 15q-68 0 -132 -29q-65 -29 -111 -80q-49 -54 -77 -124 q-28 -71 -28 -156t28 -156q28 -70 77 -124q46 -51 111 -80q64 -29 132 -29q131 0 209 66q77 65 108 159l134 -31q-14 -55 -47 -109q-31 -52 -80 -95q-50 -44 -115 -72q-69 -30 -148 -37v-174h-133v176q-81 15 -158 59q-73 42 -130 110q-55 66 -89 153q-32 83 -32 184z" />
<glyph unicode="&#xa3;" horiz-adv-x="1024" d="M41 0v133h92q78 0 131 53t53 131v379h-163v133h163v318q0 131 80 209t228 78q29 0 64 -7q25 -5 52 -14q23 -7 47 -20l-20 -133q-19 13 -41 20q-26 9 -46 14q-25 6 -56 6q-77 0 -121 -42q-43 -42 -43 -111v-318h256v-133h-256v-379q0 -47 -12 -78q-12 -32 -29 -55 q-18 -24 -41 -41v-10h625v-133h-963z" />
<glyph unicode="&#xa5;" horiz-adv-x="1228" d="M20 1413h160l430 -778h8l431 778h159l-471 -850h267v-123h-318v-143h318v-123h-318v-174h-143v174h-318v123h318v143h-318v123h267z" />
<glyph unicode="&#xa8;" horiz-adv-x="634" d="M61 1331q0 31 26 57q25 25 56 25q32 0 57 -25t25 -57q0 -31 -25 -56q-26 -26 -57 -26q-30 0 -56 26t-26 56zM410 1331q0 32 25 57t57 25q31 0 56 -25t25 -57q0 -31 -25 -56q-26 -26 -56 -26q-31 0 -57 26q-25 25 -25 56z" />
<glyph unicode="&#xa9;" horiz-adv-x="1843" d="M82 584q0 176 66 330t181 271q115 116 267 182q155 67 326 67q170 0 325 -67q152 -66 267 -182q115 -117 181 -271t66 -330t-66 -332q-65 -154 -181 -270q-118 -118 -267 -182q-153 -66 -325 -66q-173 0 -326 66q-149 64 -267 182q-116 116 -181 270q-66 156 -66 332z M215 584q0 -150 57 -282q56 -130 154 -231t225 -157q129 -57 271 -57q141 0 270 57q127 56 225 157t154 231q57 132 57 282q0 149 -57 281t-154 232q-96 99 -225 156q-131 58 -270 58q-140 0 -271 -58q-129 -57 -225 -156q-97 -100 -154 -232t-57 -281zM594 584q0 72 26 135 q25 61 69 106t104 71q61 26 129 26q57 0 105 -18q49 -19 85 -47q36 -29 64 -69q27 -39 43 -81l-113 -11q-16 38 -62 76q-44 37 -122 37q-86 0 -146 -63q-59 -62 -59 -162q0 -101 59 -163q60 -63 146 -63q91 0 140 38q47 37 64 85l113 -10q-30 -92 -109 -159 q-78 -66 -208 -66q-70 0 -129 25q-60 26 -104 71q-43 45 -69 107q-26 63 -26 135z" />
<glyph unicode="&#xab;" horiz-adv-x="860" d="M61 471l226 389h143l-225 -389l225 -389h-143zM430 471l225 389h144l-226 -389l226 -389h-144z" />
<glyph unicode="&#xad;" horiz-adv-x="808" d="M41 563v133h727v-133h-727z" />
<glyph unicode="&#xae;" horiz-adv-x="1843" d="M82 584q0 176 66 330t181 271q115 116 267 182q155 67 326 67q170 0 325 -67q152 -66 267 -182q115 -117 181 -271t66 -330t-66 -332q-65 -154 -181 -270q-118 -118 -267 -182q-153 -66 -325 -66q-173 0 -326 66q-149 64 -267 182q-116 116 -181 270q-66 156 -66 332z M215 584q0 -150 57 -282q56 -130 154 -231t225 -157q129 -57 271 -57q141 0 270 57q127 56 225 157t154 231q57 132 57 282q0 149 -57 281t-154 232q-96 99 -225 156q-131 58 -270 58q-140 0 -271 -58q-129 -57 -225 -156q-97 -100 -154 -232t-57 -281zM666 256v655h348 q110 0 172 -62q63 -63 63 -163q0 -59 -19 -96q-20 -38 -42 -60q-24 -22 -62 -38l154 -236h-143l-133 205h-216v-205h-122zM788 573h226q54 0 88 33q35 33 35 80t-35 80q-34 33 -88 33h-226v-226z" />
<glyph unicode="&#xb4;" horiz-adv-x="501" d="M61 1239l318 184l61 -123l-338 -143z" />
<glyph unicode="&#xb8;" horiz-adv-x="491" d="M61 -410l62 72q11 -13 27 -20q26 -13 32 -15q18 -6 43 -6q48 0 75 27q28 28 28 65q0 38 -28 66q-26 26 -75 26h-71l92 215h102l-51 -133q38 -11 65 -32q29 -25 47 -55q21 -34 21 -87q0 -87 -56 -140q-57 -54 -149 -54q-42 0 -69 10q-32 12 -52 25q-30 20 -43 36z" />
<glyph unicode="&#xbb;" horiz-adv-x="860" d="M61 82l226 389l-226 389h144l225 -389l-225 -389h-144zM430 82l225 389l-225 389h143l226 -389l-226 -389h-143z" />
<glyph unicode="&#x2c6;" horiz-adv-x="706" d="M61 1096l246 317h92l246 -317h-123l-164 204h-10l-164 -204h-123z" />
<glyph unicode="&#x2da;" horiz-adv-x="532" d="M61 1208q0 86 60 146q59 59 145 59q87 0 146 -59t59 -146q0 -86 -59 -145t-146 -59q-86 0 -145 59q-60 60 -60 145zM154 1208q0 -55 32 -88q33 -35 80 -35t80 35q33 34 33 88t-33 88q-33 35 -80 35t-80 -35q-32 -33 -32 -88z" />
<glyph unicode="&#x2dc;" horiz-adv-x="645" d="M61 1188v51q0 87 42 130q42 44 112 44q46 0 74 -19q29 -20 48 -42q12 -14 38 -42q18 -20 45 -20q22 0 42 20q19 19 19 42v51h103v-51q0 -86 -42 -130t-112 -44q-49 0 -75 19q-28 20 -47 42q-12 14 -38 42q-18 19 -45 19q-23 0 -42 -19t-19 -42v-51h-103z" />
<glyph unicode="&#x401;" horiz-adv-x="1208" d="M154 0v1413h1013v-133h-870v-502h686v-133h-686v-512h870v-133h-1013zM408 1731q0 31 25 56t56 25q32 0 57 -25t25 -56q0 -32 -25 -57t-57 -25q-31 0 -56 25t-25 57zM756 1731q0 31 25 56t57 25q31 0 56 -25q26 -26 26 -56q0 -31 -26 -57q-25 -25 -56 -25q-32 0 -57 25 t-25 57z" />
<glyph unicode="&#x402;" horiz-adv-x="1474" d="M-41 1280v133h973v-133h-451v-420h369q121 0 220 -35q97 -34 164 -98q65 -62 102 -153q36 -88 36 -195v-266q0 -153 -80 -236q-79 -82 -227 -82q-26 0 -47 4q-23 4 -43 11q-8 3 -23 8.5t-20 7.5l20 123q12 -5 33 -10q36 -11 80 -11q78 0 121 46t43 139v266q0 74 -26 140 q-25 65 -75 111q-48 45 -119 71q-72 26 -159 26h-369v-727h-143v1280h-379z" />
<glyph unicode="&#x403;" d="M154 0v1413h952v-133h-809v-1280h-143zM471 1700l317 184l62 -123l-338 -143z" />
<glyph unicode="&#x404;" horiz-adv-x="1546" d="M82 707q0 159 60 299q58 136 161 243q100 104 232 165q133 61 274 61q131 0 238 -39q104 -38 187 -101q82 -62 134 -138q54 -79 76 -153l-144 -20q-24 62 -65 115q-43 57 -105 102q-64 47 -141 73q-79 27 -180 27q-110 0 -208 -46q-100 -47 -179 -123q-80 -76 -132 -177 q-53 -102 -65 -207h635v-133h-635q12 -118 63 -229q49 -105 129 -185t180 -124q102 -45 212 -45q108 0 192 28q86 29 151 77q67 50 112 111q48 65 77 132l144 -21q-29 -86 -88 -171q-56 -82 -143 -147q-87 -66 -196 -104q-108 -38 -249 -38q-143 0 -274 60q-132 61 -232 165 q-102 106 -161 244q-60 140 -60 299z" />
<glyph unicode="&#x405;" horiz-adv-x="1259" d="M61 358l144 21q27 -67 65 -122t92 -97q53 -41 121 -65q65 -23 152 -23q96 0 171 24q74 24 125 67q50 42 77 95q26 51 26 111q0 68 -38 115q-36 45 -101 79q-62 33 -143 57q-53 16 -163 48q-75 22 -163 55q-79 30 -143 77q-66 49 -102 112q-38 67 -38 163q0 76 35 149 q35 72 101 128q65 54 158 89q92 34 208 34q109 0 198 -29q83 -27 152 -79q65 -49 111 -118t72 -143l-144 -31q-30 67 -60 111q-36 51 -80 84q-48 35 -108 53q-62 18 -141 18q-85 0 -150 -22t-113 -61q-47 -38 -71 -86t-24 -97q0 -92 65 -144t165 -88q107 -39 215 -67 q112 -29 215 -79q98 -48 165 -125q66 -76 66 -203q0 -85 -37 -162q-37 -76 -108 -137q-71 -60 -171 -96q-98 -35 -227 -35q-121 0 -213 32q-96 33 -166 89q-71 57 -120 134t-75 164z" />
<glyph unicode="&#x406;" horiz-adv-x="450" d="M154 0v1413h143v-1413h-143z" />
<glyph unicode="&#x407;" horiz-adv-x="491" d="M-8 1710q0 31 25 56q26 26 57 26q30 0 56 -26t26 -56t-26 -56t-56 -26q-31 0 -57 26q-25 25 -25 56zM174 0v1413h143v-1413h-143zM340 1710q0 30 26 56t56 26t56 -26t26 -56t-26 -56t-56 -26t-56 26t-26 56z" />
<glyph unicode="&#x408;" horiz-adv-x="1095" d="M20 266l144 31q31 -94 105 -159q75 -66 192 -66q76 0 135 26q61 27 106 76q46 50 71 122q26 73 26 165v952h143v-952q0 -119 -36 -215q-36 -97 -100 -165t-153 -106q-85 -36 -192 -36q-89 0 -162 27t-131 74q-60 49 -95 105q-39 62 -53 121z" />
<glyph unicode="&#x409;" horiz-adv-x="2119" d="M20 0l338 1413h758v-471h400q113 0 210 -38q96 -38 165 -102t108 -150q39 -85 39 -181q0 -95 -39 -181t-108 -150t-165 -102q-97 -38 -210 -38h-543v1280h-502l-307 -1280h-144zM1116 133h400q84 0 153 27q74 29 120 72q52 49 78 108q27 61 27 131q0 69 -27 131 q-26 59 -78 108q-46 43 -120 72q-69 27 -153 27h-400v-676z" />
<glyph unicode="&#x40a;" horiz-adv-x="2211" d="M154 0v1413h143v-553h747v553h144v-553h471q106 0 190 -34q88 -36 149 -92q63 -58 97 -137q35 -81 35 -167t-35 -167q-34 -79 -97 -137q-61 -56 -149 -92q-84 -34 -190 -34h-615v727h-747v-727h-143zM1188 133h471q74 0 134 24q62 25 103 63q43 40 67 94t24 116t-24 116 t-67 94q-41 38 -103 63q-60 24 -134 24h-471v-594z" />
<glyph unicode="&#x40b;" horiz-adv-x="1474" d="M-41 1280v133h973v-133h-451v-420h369q121 0 220 -35q97 -34 164 -98q65 -62 102 -153q36 -88 36 -195v-379h-143v379q0 74 -26 140q-25 65 -75 111q-48 45 -119 71q-72 26 -159 26h-369v-727h-143v1280h-379z" />
<glyph unicode="&#x40c;" horiz-adv-x="1392" d="M154 0v1413h143v-635h481q86 0 141 55q54 54 54 140v184q0 132 73 205q72 72 203 72h62v-134h-62q-62 0 -97 -36q-36 -38 -36 -107v-184q0 -83 -25 -129q-25 -45 -57 -74q-40 -32 -82 -43v-10q51 -18 92 -53q36 -30 64 -81q29 -53 29 -132v-195q0 -70 35 -106 q36 -37 98 -37h61v-133h-61q-133 0 -204 71q-73 73 -73 205v195q0 86 -54 140t-140 54h-502v-645h-143zM522 1679l318 185l61 -123l-338 -144z" />
<glyph unicode="&#x40e;" horiz-adv-x="1310" d="M20 1413h144l317 -768h359l307 768h143l-430 -1106q-69 -175 -162 -262q-92 -86 -237 -86h-103v133h103q90 0 149 49q61 50 107 166l82 205h-410zM379 1866h113q0 -70 47 -117t116 -47q70 0 117 47t47 117h113q0 -123 -77 -200t-200 -77q-122 0 -199 77t-77 200z" />
<glyph unicode="&#x40f;" horiz-adv-x="1402" d="M154 0v1413h143v-1280h809v1280h143v-1413h-471v-266h-143v266h-481z" />
<glyph unicode="&#x410;" horiz-adv-x="1372" d="M41 0l348 1413h594l348 -1413h-143l-92 358h-820l-92 -358h-143zM307 492h758l-195 788h-368z" />
<glyph unicode="&#x411;" horiz-adv-x="1351" d="M154 0v1413h993v-133h-850v-399h502q111 0 201 -34q92 -35 156 -94q63 -59 99 -141q35 -81 35 -172t-35 -172q-35 -80 -99 -140q-64 -59 -156 -94q-90 -34 -201 -34h-645zM297 133h502q79 0 144 24q66 25 110 64q45 41 69 97q25 59 25 122q0 137 -91 222q-92 86 -257 86 h-502v-615z" />
<glyph unicode="&#x412;" horiz-adv-x="1382" d="M154 0v1413h604q90 0 168 -29t129 -77q53 -50 83 -114q29 -62 29 -138q0 -88 -28 -140q-29 -54 -64 -84q-39 -36 -92 -53v-10q98 -16 168 -57q33 -20 61 -45q35 -32 56 -63q24 -36 39 -84q14 -45 14 -109q0 -84 -33 -159q-33 -74 -93 -130q-59 -55 -145 -88t-190 -33 h-706zM297 133h563q71 0 132 22q59 21 100 59q40 37 63 88t23 108q0 56 -23 107t-63 88q-43 39 -100 60q-58 21 -132 21h-563v-553zM297 819h461q122 0 194 66t72 170q0 92 -72 158q-73 67 -194 67h-461v-461z" />
<glyph unicode="&#x413;" d="M154 0v1413h952v-133h-809v-1280h-143z" />
<glyph unicode="&#x414;" horiz-adv-x="1474" d="M0 133h143l308 1280h573l307 -1280h144v-389h-144v256h-1188v-256h-143v389zM287 133h901l-277 1147h-348z" />
<glyph unicode="&#x415;" horiz-adv-x="1218" d="M154 0v1413h1013v-133h-870v-502h686v-133h-686v-512h870v-133h-1013z" />
<glyph unicode="&#x416;" horiz-adv-x="2088" d="M61 -20v133h62q61 0 97 37q36 38 36 106v195q0 79 29 132t63 81q40 35 92 53v10q-42 11 -82 43q-30 27 -56 74t-26 129v184q0 71 -35 107t-98 36h-61v134h61q132 0 204 -72q73 -73 73 -205v-184q0 -86 54 -140q55 -55 140 -55h359v635h143v-635h359q85 0 140 55 q54 54 54 140v184q0 132 73 205q72 72 204 72h61v-134h-61q-63 0 -98 -36q-36 -38 -36 -107v-184q0 -83 -25 -129q-26 -47 -56 -74q-40 -32 -82 -43v-10q51 -18 92 -53q35 -28 63 -81q29 -53 29 -132v-195q0 -68 36 -106q36 -37 97 -37h62v-133h-62q-133 0 -204 71 q-72 72 -72 205v195q0 85 -55 140q-54 54 -140 54h-379v-645h-143v645h-379q-86 0 -140 -54q-55 -55 -55 -140v-195q0 -133 -72 -205q-71 -71 -204 -71h-62z" />
<glyph unicode="&#x417;" horiz-adv-x="1259" d="M61 358l144 21q27 -67 65 -122q37 -53 93 -97q54 -41 120 -65q65 -23 152 -23q96 0 171 24q74 24 125 67q50 42 77 95q26 51 26 111q0 59 -26 110q-27 53 -77 95q-51 43 -125 67q-78 25 -171 25h-113v133h113q80 0 146 24q67 24 114 64q48 40 73 89t25 99q0 49 -24 97 t-71 86q-48 39 -113 61t-150 22q-79 0 -141 -18q-60 -18 -108 -53q-44 -33 -80 -84q-30 -44 -60 -111l-144 31q26 74 72 143t111 118q69 52 152 79q89 29 198 29q116 0 208 -34q93 -35 158 -89q66 -56 101 -128q35 -73 35 -149q0 -101 -45 -164q-43 -60 -99 -100 q-59 -41 -143 -63v-11q93 -21 164 -67q30 -21 60 -48q28 -25 52 -65q21 -36 37 -84q15 -47 15 -104q0 -85 -37 -162q-37 -76 -108 -137q-71 -60 -171 -96q-98 -35 -227 -35q-121 0 -213 32q-96 33 -166 89q-71 57 -120 134t-75 164z" />
<glyph unicode="&#x418;" horiz-adv-x="1423" d="M154 0v1413h143v-1167h10l809 1167h154v-1413h-144v1167h-10l-809 -1167h-153z" />
<glyph unicode="&#x419;" horiz-adv-x="1423" d="M154 0v1413h143v-1167h10l809 1167h154v-1413h-144v1167h-10l-809 -1167h-153zM440 1874h113q0 -70 47 -117t117 -47t117 47t47 117h112q0 -123 -77 -200t-199 -77q-123 0 -200 77t-77 200z" />
<glyph unicode="&#x41a;" horiz-adv-x="1392" d="M154 0v1413h143v-635h481q86 0 141 55q54 54 54 140v184q0 132 73 205q72 72 203 72h62v-134h-62q-62 0 -97 -36q-36 -38 -36 -107v-184q0 -83 -25 -129q-25 -45 -57 -74q-40 -32 -82 -43v-10q51 -18 92 -53q36 -30 64 -81q29 -53 29 -132v-195q0 -70 35 -106 q36 -37 98 -37h61v-133h-61q-133 0 -204 71q-73 73 -73 205v195q0 86 -54 140t-140 54h-502v-645h-143z" />
<glyph unicode="&#x41b;" horiz-adv-x="1372" d="M41 0l348 1413h594l348 -1413h-143l-318 1280h-368l-318 -1280h-143z" />
<glyph unicode="&#x41c;" horiz-adv-x="1720" d="M154 0v1413h153l553 -676l553 676h154v-1413h-144v1198h-10l-553 -676l-553 676h-10v-1198h-143z" />
<glyph unicode="&#x41d;" horiz-adv-x="1402" d="M154 0v1413h143v-635h809v635h143v-1413h-143v645h-809v-645h-143z" />
<glyph unicode="&#x41e;" horiz-adv-x="1658" d="M82 707q0 155 60 294t164 245q104 105 239 167q136 62 284 62q149 0 285 -62q137 -62 239 -166q106 -107 164 -243q60 -140 60 -297t-60 -297q-59 -138 -164 -244q-102 -104 -239 -166q-134 -61 -285 -61q-150 0 -284 61q-137 62 -239 166q-105 106 -164 244 q-60 140 -60 297zM225 707q0 -130 50 -247q49 -114 134 -202q84 -87 192 -136q111 -50 228 -50q118 0 229 50q108 49 192 136t133 202q51 119 51 247q0 127 -51 246q-49 115 -133 202t-192 136q-111 50 -229 50q-117 0 -228 -50q-108 -49 -192 -136q-85 -88 -134 -202 q-50 -117 -50 -246z" />
<glyph unicode="&#x41f;" horiz-adv-x="1402" d="M154 0v1413h1095v-1413h-143v1280h-809v-1280h-143z" />
<glyph unicode="&#x420;" horiz-adv-x="1372" d="M154 0v1413h594q121 0 223 -38q101 -37 171 -105q69 -66 109 -160q39 -91 39 -199q0 -107 -39 -199t-109 -159q-72 -69 -171 -106t-223 -37h-451v-410h-143zM297 543h451q92 0 165 27t126 77t80 117q28 70 28 147q0 78 -28 148q-27 67 -80 117q-52 49 -126 76 q-76 28 -165 28h-451v-737z" />
<glyph unicode="&#x421;" horiz-adv-x="1546" d="M82 707q0 157 60 297q58 136 161 243q99 104 233 166q133 62 273 62q131 0 238 -39q104 -38 187 -101q82 -62 134 -138q54 -79 76 -153l-144 -20q-24 62 -65 115q-43 57 -105 102q-64 47 -141 73q-79 27 -180 27q-110 0 -216 -50q-102 -48 -187 -136q-82 -85 -132 -202 q-49 -114 -49 -246q0 -135 49 -249q50 -117 132 -202q83 -86 187 -135t216 -49q108 0 192 28q86 29 151 77q67 50 112 111q48 65 77 132l144 -21q-29 -86 -88 -171q-56 -82 -143 -147q-87 -66 -196 -104q-108 -38 -249 -38q-142 0 -273 61q-134 62 -233 166 q-102 106 -161 244q-60 140 -60 297z" />
<glyph unicode="&#x422;" horiz-adv-x="1187" d="M20 1280v133h1147v-133h-501v-1280h-144v1280h-502z" />
<glyph unicode="&#x423;" horiz-adv-x="1310" d="M20 1413h144l317 -768h359l307 768h143l-430 -1106q-69 -175 -162 -262q-92 -86 -237 -86h-103v133h103q90 0 149 49q61 50 107 166l82 205h-410z" />
<glyph unicode="&#x424;" horiz-adv-x="1802" d="M72 707q0 127 55 243q56 117 155 206q101 91 238 142q143 54 309 54v143h144v-143q163 0 308 -54q139 -52 240 -142q98 -87 154 -206q56 -118 56 -243q0 -126 -56 -244q-56 -119 -154 -206q-101 -90 -240 -142q-145 -54 -308 -54v-143h-144v143q-166 0 -309 54 q-137 51 -238 142q-99 89 -155 206q-55 116 -55 244zM215 707q0 -100 44 -193q44 -92 125 -163q79 -68 194 -113q111 -43 251 -43v1024q-140 0 -251 -43q-113 -44 -194 -114q-81 -71 -125 -163q-44 -93 -44 -192zM973 195q138 0 251 43q114 44 194 113q81 71 125 163 q44 93 44 193q0 99 -44 192q-44 92 -125 163q-82 71 -194 114q-113 43 -251 43v-1024z" />
<glyph unicode="&#x425;" horiz-adv-x="1259" d="M31 0q238 344 256 369q170 244 256 368l-471 676h164l389 -563h10l389 563h164l-471 -676q86 -124 256 -368q18 -25 256 -369h-164l-430 625h-10l-430 -625h-164z" />
<glyph unicode="&#x426;" horiz-adv-x="1413" d="M154 0v1413h143v-1280h768v1280h143v-1280h164v-389h-143v256h-1075z" />
<glyph unicode="&#x427;" horiz-adv-x="1341" d="M133 942v471h143v-471q0 -77 26 -141t75 -110q48 -45 120 -71t158 -26h389v819h144v-1413h-144v461h-389q-121 0 -220 35q-97 34 -164 98q-66 63 -102 151q-36 89 -36 197z" />
<glyph unicode="&#x428;" horiz-adv-x="2007" d="M154 0v1413h143v-1280h635v1280h143v-1280h635v1280h143v-1413h-1699z" />
<glyph unicode="&#x429;" horiz-adv-x="2058" d="M154 0v1413h143v-1280h635v1280h143v-1280h635v1280h143v-1280h164v-389h-143v256h-1720z" />
<glyph unicode="&#x42a;" horiz-adv-x="1454" d="M0 1280v133h461v-471h389q114 0 211 -38q96 -38 165 -102q67 -63 107 -150q39 -85 39 -181q0 -95 -39 -181q-40 -87 -107 -150q-69 -64 -165 -102q-97 -38 -211 -38h-533v1280h-317zM461 133h389q85 0 154 27q73 28 119 72q52 49 78 108q28 64 28 131t-28 131 q-26 59 -78 108q-46 44 -119 72q-69 27 -154 27h-389v-676z" />
<glyph unicode="&#x42b;" horiz-adv-x="1699" d="M154 0v1413h143v-471h369q114 0 211 -38q94 -37 164 -102q69 -64 108 -150q39 -85 39 -181q0 -95 -39 -181t-108 -150q-70 -65 -164 -102q-97 -38 -211 -38h-512zM297 133h369q84 0 153 27q74 29 120 72q52 49 78 108q27 61 27 131q0 69 -27 131q-26 59 -78 108 q-46 43 -120 72q-69 27 -153 27h-369v-676zM1403 0v1413h143v-1413h-143z" />
<glyph unicode="&#x42c;" horiz-adv-x="1331" d="M154 0v1413h143v-471h430q114 0 211 -38q96 -38 165 -102q67 -63 107 -150q39 -85 39 -181q0 -95 -39 -181q-40 -87 -107 -150q-69 -64 -165 -102q-97 -38 -211 -38h-573zM297 133h430q85 0 154 27q73 28 119 72q52 49 78 108q28 64 28 131t-28 131q-26 59 -78 108 q-46 44 -119 72q-69 27 -154 27h-430v-676z" />
<glyph unicode="&#x42d;" horiz-adv-x="1546" d="M61 399l144 21q28 -64 78 -132q47 -63 111 -111q66 -49 150 -77t193 -28q110 0 212 45q100 44 180 124t129 185q51 111 63 229h-635v133h635q-12 105 -65 207q-52 101 -132 177t-180 123q-99 46 -207 46q-100 0 -181 -27q-78 -26 -142 -73q-63 -46 -104 -102 q-40 -54 -64 -115l-144 20q22 74 76 153q52 76 134 138t188 101t237 39q142 0 275 -61q130 -60 231 -165q103 -107 161 -243q60 -139 60 -299q0 -159 -60 -299q-59 -138 -161 -244q-101 -105 -231 -165t-275 -60q-142 0 -250 38q-107 38 -195 104q-84 64 -142 147 q-61 88 -89 171z" />
<glyph unicode="&#x42e;" horiz-adv-x="2017" d="M154 0v1413h143v-635h276q7 151 63 282q55 129 144 220q91 92 210 143q122 52 259 52t262 -57q128 -59 220 -158t149 -244q55 -140 55 -309q0 -171 -55 -311q-56 -141 -149 -242q-94 -101 -220 -159q-122 -56 -262 -56q-139 0 -259 51t-210 144t-144 223q-56 135 -63 288 h-276v-645h-143zM707 707q0 -140 44 -260q44 -119 119 -200q77 -83 173 -129t206 -46q107 0 205 46q96 45 174 129q77 83 120 200q44 120 44 260q0 139 -44 259q-43 117 -120 200q-78 84 -174 129q-98 46 -205 46q-110 0 -206 -46t-173 -129q-75 -81 -119 -200 q-44 -120 -44 -259z" />
<glyph unicode="&#x42f;" horiz-adv-x="1392" d="M102 922q0 100 39 189t110 157q70 67 171 106q100 39 223 39h594v-1413h-143v430h-512l-297 -430h-164l317 461q-98 38 -170 100q-33 29 -61 62q-31 35 -54 79q-21 40 -38 100q-15 54 -15 120zM246 922q0 -73 29 -135q30 -65 82 -114q53 -50 126 -80t162 -30h451v717 h-451q-89 0 -162 -30t-126 -80q-52 -49 -82 -114q-29 -62 -29 -134z" />
<glyph unicode="&#x430;" d="M72 471q0 112 37 205q38 97 99 163q63 69 144 106q84 38 170 38q78 0 140 -28q59 -26 100 -60q51 -41 78 -86h10v133h133v-942h-133v133h-10q-28 -48 -78 -88q-38 -31 -100 -59q-60 -27 -140 -27q-86 0 -170 38q-81 37 -144 106q-61 66 -99 163q-37 93 -37 205zM205 471 q0 -91 26 -160q27 -72 72 -123t105 -78q62 -28 124 -28q79 0 140 35q59 34 100 78q50 53 78 112v328q-29 59 -78 113q-40 40 -100 76t-140 36q-64 0 -124 -27q-59 -26 -105 -79q-45 -51 -72 -123q-26 -69 -26 -160z" />
<glyph unicode="&#x431;" d="M113 430v451q0 169 84 264q85 95 223 125l317 71q29 7 51 31q21 22 21 62v41h133v-62q0 -85 -41 -129q-39 -42 -133 -65l-317 -72q-85 -18 -146 -88q-59 -68 -59 -178v-174q27 51 76 96q39 36 105 67q67 31 157 31q92 0 174 -36q81 -35 143 -99q60 -61 97 -150 q36 -86 36 -186t-36 -186q-38 -90 -98 -150q-64 -64 -146 -99q-84 -36 -181 -36q-96 0 -180 36q-82 35 -146 99q-62 62 -99 150q-35 83 -35 186zM246 430q0 -79 25 -141t70 -110q42 -45 103 -71t129 -26t129 26q62 27 104 71q45 48 70 110t25 141q0 77 -25 140t-70 111 q-43 46 -104 72q-59 25 -129 25t-129 -25t-103 -72q-45 -48 -70 -111t-25 -140z" />
<glyph unicode="&#x432;" horiz-adv-x="983" d="M123 0v942h422q134 0 210 -68q74 -67 74 -167q0 -59 -21 -94q-20 -32 -46 -52q-29 -23 -66 -29v-10q65 -11 117 -39q44 -24 82 -72q37 -47 37 -135q0 -54 -23 -105t-63 -88t-100 -60t-132 -23h-491zM256 123h358q87 0 136 49t49 115q0 71 -49 117q-50 47 -136 47h-358 v-328zM256 573h289q75 0 113 35t38 88t-38 88t-113 35h-289v-246z" />
<glyph unicode="&#x433;" horiz-adv-x="798" d="M123 0v942h676v-123h-543v-819h-133z" />
<glyph unicode="&#x434;" horiz-adv-x="1075" d="M0 123h133l174 819h461l174 -819h133v-348h-133v225h-809v-225h-133v348zM266 123h543l-143 696h-256z" />
<glyph unicode="&#x435;" horiz-adv-x="1075" d="M72 471q0 109 38 205q37 94 102 163q64 69 149 106q87 38 182 38q94 0 181 -38q85 -37 149 -106q67 -71 103 -163q38 -96 38 -205l-62 -61h-747q7 -66 37 -129t74 -104q46 -43 107 -69t130 -26q73 0 123 17q55 19 93 47q39 29 67 69q25 37 41 82l133 -27 q-16 -55 -56 -115q-37 -57 -94 -100q-53 -40 -134 -69q-76 -27 -171 -27q-98 0 -188 38q-88 37 -154 106q-65 68 -103 163q-38 96 -38 205zM205 532h676q-7 68 -37 130q-28 58 -74 103q-47 46 -103 70q-57 25 -124 25t-124 -25q-58 -25 -104 -70q-45 -43 -73 -103 q-30 -62 -37 -130z" />
<glyph unicode="&#x436;" horiz-adv-x="1546" d="M61 -20v122h41q93 0 93 93v102q0 63 20 96q21 35 45 51q28 21 68 27v10q-34 8 -58 29q-23 17 -39 49t-16 86v103q0 92 -92 92h-41v123h51q109 0 162 -55t53 -140v-102q0 -61 35 -98q35 -36 88 -36h236v410h133v-410h235q53 0 88 36q35 37 35 98v102q0 85 53 140t162 55 h51v-123h-41q-92 0 -92 -92v-103q0 -55 -17 -86q-18 -33 -40 -49q-24 -21 -55 -29v-10q36 -6 65 -27q26 -18 46 -51q22 -36 22 -96v-102q0 -93 92 -93h41v-122h-51q-110 0 -162 54q-53 55 -53 140v102q0 61 -35 98q-34 36 -88 36h-256v-410h-133v410h-256q-55 0 -89 -36 q-34 -35 -34 -98v-102q0 -84 -54 -140q-52 -54 -161 -54h-52z" />
<glyph unicode="&#x437;" horiz-adv-x="962" d="M51 246l133 20q15 -35 40 -67q26 -33 63 -60q38 -27 85 -42q48 -15 109 -15q70 0 121 15t86 41q32 24 52 57q18 30 18 61t-18 61q-20 33 -52 57q-35 26 -86 41t-121 15h-102v123h102q65 0 108 14q47 15 77 36q31 22 46 49t15 55q0 27 -15 54t-46 49q-30 21 -77 36 q-43 14 -108 14q-53 0 -94 -12q-42 -12 -72 -32q-32 -21 -53 -43q-22 -23 -37 -46l-133 21q16 40 47 79q36 44 82 76q53 37 115 58q65 22 145 22q93 0 163 -24q73 -25 119 -61q49 -38 73 -88t24 -103q0 -58 -31 -97q-29 -36 -67 -59q-44 -24 -96 -39v-10q59 -16 112 -47 q42 -29 77 -75q36 -46 36 -124q0 -58 -27 -111q-28 -54 -79 -95q-53 -43 -128 -66q-80 -25 -176 -25q-84 0 -159 25q-74 25 -125 64q-56 43 -91 92q-36 50 -55 106z" />
<glyph unicode="&#x438;" horiz-adv-x="1075" d="M123 0v942h133v-717h10l553 717h133v-942h-133v717h-10l-553 -717h-133z" />
<glyph unicode="&#x439;" horiz-adv-x="1075" d="M123 0v942h133v-717h10l553 717h133v-942h-133v717h-10l-553 -717h-133zM279 1409h102q0 -70 42 -112t112 -42q69 0 111 42t42 112h103q0 -52 -20 -100t-54 -82q-35 -35 -82 -55q-45 -19 -100 -19q-56 0 -101 19q-46 20 -82 55q-34 34 -54 82q-19 45 -19 100z" />
<glyph unicode="&#x43a;" horiz-adv-x="1034" d="M123 0v942h133v-410h307q53 0 88 36q35 37 35 98v102q0 85 53 140t162 55h51v-123h-41q-92 0 -92 -92v-103q0 -55 -17 -86q-18 -33 -40 -49q-24 -21 -55 -29v-10q36 -6 65 -27q26 -18 46 -51q22 -36 22 -96v-102q0 -93 92 -93h41v-122h-51q-110 0 -162 54q-53 55 -53 140 v102q0 61 -35 98q-34 36 -88 36h-328v-410h-133z" />
<glyph unicode="&#x43b;" horiz-adv-x="1034" d="M41 0l205 942h542l205 -942h-133q-59 270 -88 410q-25 124 -86 409h-338l-174 -819h-133z" />
<glyph unicode="&#x43c;" horiz-adv-x="1228" d="M123 0v942h143l348 -430l349 430h143v-942h-133v737h-10l-349 -430l-348 430h-10v-737h-133z" />
<glyph unicode="&#x43d;" horiz-adv-x="1054" d="M123 0v942h133v-420h543v420h133v-942h-133v399h-543v-399h-133z" />
<glyph unicode="&#x43e;" horiz-adv-x="1126" d="M72 471q0 109 38 205q37 93 104 163q64 67 156 106q90 38 193 38q104 0 194 -38t155 -106q69 -72 105 -163q38 -96 38 -205t-38 -205q-36 -91 -105 -163q-65 -68 -155 -106t-194 -38q-103 0 -193 38q-92 39 -156 106q-67 70 -104 163q-38 96 -38 205zM205 471 q0 -85 28 -156t78 -124q48 -51 115 -80t137 -29q72 0 138 29t114 80q50 53 78 124q29 73 29 156t-29 156q-28 71 -78 124q-48 51 -114 80t-138 29t-138 -29t-114 -80q-50 -53 -78 -124t-28 -156z" />
<glyph unicode="&#x43f;" horiz-adv-x="1054" d="M123 0v942h809v-942h-133v819h-543v-819h-133z" />
<glyph unicode="&#x440;" d="M123 -410v1352h133v-133h10q27 45 78 86q40 33 99 60q61 28 141 28q86 0 170 -38q81 -37 144 -106q61 -66 99 -163q37 -93 37 -205t-37 -205q-38 -97 -99 -163q-63 -69 -144 -106q-84 -38 -170 -38q-82 0 -141 27q-61 28 -99 59q-50 40 -78 88h-10v-543h-133zM256 307 q28 -59 78 -112q40 -43 99 -78t140 -35q63 0 125 28q60 27 105 78q43 49 71 123q27 72 27 160t-27 160q-28 74 -71 123q-46 53 -105 79q-60 27 -125 27q-82 0 -140 -36q-60 -37 -99 -76q-49 -54 -78 -113v-328z" />
<glyph unicode="&#x441;" horiz-adv-x="1054" d="M72 471q0 107 39 201t105 163q63 65 154 108q86 40 183 40q86 0 159 -25q72 -25 124 -63t87 -89q33 -47 50 -99l-133 -31q-11 32 -35 67q-22 32 -59 60t-83 42q-48 15 -110 15q-68 0 -132 -29q-65 -29 -111 -80q-49 -54 -77 -124q-28 -71 -28 -156t28 -156 q28 -70 77 -124q46 -51 111 -80q64 -29 132 -29q131 0 209 66q77 65 108 159l134 -31q-16 -59 -53 -118q-39 -61 -92 -102q-56 -43 -133 -70q-76 -27 -173 -27t-183 40q-90 42 -154 109q-67 70 -105 161q-39 93 -39 202z" />
<glyph unicode="&#x442;" horiz-adv-x="849" d="M20 819v123h809v-123h-337v-819h-134v819h-338z" />
<glyph unicode="&#x443;" horiz-adv-x="972" d="M43 942h133l174 -819h277l174 819h133l-205 -942q-29 -132 -60 -206q-35 -84 -76 -132q-43 -51 -94 -71q-52 -21 -118 -21q-35 0 -65 6q-25 5 -52 14q-18 6 -47 21l31 123q19 -15 35 -21q19 -9 42 -14q25 -6 56 -6q35 0 65 15q31 16 58 50q25 31 50 95q25 62 42 147h-348 z" />
<glyph unicode="&#x444;" horiz-adv-x="1259" d="M72 471q0 105 39 196q38 90 106 159q67 68 157 111q87 41 189 46v430h133v-430q103 -5 190 -46q88 -42 156 -111q70 -71 107 -159q39 -92 39 -196q0 -105 -39 -196q-38 -90 -107 -160q-70 -72 -156 -111q-88 -40 -190 -45v-369h-133v369q-101 5 -189 45t-157 111 q-67 68 -106 160q-39 91 -39 196zM205 471q0 -81 28 -149q29 -70 78 -122q50 -53 114 -83q66 -31 138 -35v778q-72 -4 -138 -35q-64 -30 -114 -83t-78 -121t-28 -150zM696 82q73 4 139 35q62 29 113 83q49 52 78 122t29 149q0 80 -29 150q-28 68 -78 121q-51 54 -113 83 q-66 31 -139 35v-778z" />
<glyph unicode="&#x445;" horiz-adv-x="931" d="M31 0l348 492l-318 450h154l246 -348h10l246 348h153l-317 -450l348 -492h-153l-277 389h-10l-277 -389h-153z" />
<glyph unicode="&#x446;" horiz-adv-x="1064" d="M123 0v942h133v-819h502v819h133v-819h143v-344h-133v221h-778z" />
<glyph unicode="&#x447;" horiz-adv-x="993" d="M102 655v287h134v-287q0 -109 67 -172t199 -63h235v522h133v-942h-133v297h-235q-90 0 -166 28q-73 27 -126 74t-80 113q-28 68 -28 143z" />
<glyph unicode="&#x448;" horiz-adv-x="1484" d="M123 0v942h133v-819h420v819h133v-819h420v819h133v-942h-1239z" />
<glyph unicode="&#x449;" horiz-adv-x="1536" d="M123 0v942h133v-819h420v819h133v-819h420v819h133v-819h143v-344h-133v221h-1249z" />
<glyph unicode="&#x44a;" horiz-adv-x="1054" d="M0 819v123h369v-287h256q84 0 152 -25q67 -25 117 -70q49 -45 74 -103q25 -59 25 -129t-25 -129q-26 -60 -74 -104q-48 -43 -117 -69q-70 -26 -152 -26h-389v819h-236zM369 123h256q110 0 172 59q63 60 63 146q0 85 -63 145q-62 59 -172 59h-256v-409z" />
<glyph unicode="&#x44b;" horiz-adv-x="1290" d="M123 0v942h133v-287h246q84 0 152 -25q67 -25 117 -70q49 -45 74 -103q25 -59 25 -129t-25 -129q-26 -60 -74 -104q-48 -43 -117 -69q-70 -26 -152 -26h-379zM256 123h246q110 0 172 59q63 60 63 146q0 85 -63 145q-62 59 -172 59h-246v-409zM1034 0v942h133v-942h-133z " />
<glyph unicode="&#x44c;" horiz-adv-x="962" d="M123 0v942h133v-287h276q85 0 153 -25q67 -25 117 -70q49 -45 74 -103q25 -59 25 -129t-25 -129q-26 -60 -74 -104q-48 -43 -117 -69q-70 -26 -153 -26h-409zM256 123h276q111 0 173 59q63 60 63 146q0 85 -63 145q-62 59 -173 59h-276v-409z" />
<glyph unicode="&#x44d;" horiz-adv-x="1054" d="M51 276l133 31q30 -92 109 -159q78 -66 209 -66q65 0 125 27q61 27 106 71q49 48 78 105q32 64 39 125h-389v122h389q-7 61 -39 125q-30 59 -77 105q-47 45 -106 72q-58 26 -126 26q-62 0 -110 -15t-84 -42q-35 -26 -58 -60q-24 -35 -35 -67l-133 31q15 51 49 99 q34 49 88 89q52 38 124 63q73 25 159 25q97 0 183 -40q91 -43 154 -108q66 -69 105 -163t39 -201q0 -109 -39 -202q-38 -91 -105 -161q-64 -67 -154 -109q-86 -40 -183 -40q-96 0 -173 27t-133 70q-54 41 -94 102q-35 54 -51 118z" />
<glyph unicode="&#x44e;" horiz-adv-x="1413" d="M123 0v942h133v-410h184q12 100 50 184q36 79 99 142q58 58 137 92q76 33 165 33q93 0 174 -37q82 -37 143 -104q62 -68 98 -162q35 -92 35 -209t-35 -209q-36 -94 -98 -162q-61 -67 -143 -104q-81 -37 -174 -37q-89 0 -165 33q-79 34 -137 92q-63 63 -99 142 q-38 84 -50 184h-184v-410h-133zM573 471q0 -92 26 -165t69 -122q42 -47 100 -75q57 -27 123 -27t123 27q58 28 100 75q43 49 69 122q25 71 25 165t-25 165q-26 73 -69 122t-100 76q-55 26 -123 26t-123 -26q-57 -27 -100 -76t-69 -122t-26 -165z" />
<glyph unicode="&#x44f;" horiz-adv-x="1003" d="M72 0l204 297q-57 23 -102 63q-39 34 -71 94q-31 58 -31 150q0 75 25 135q26 62 75 107q49 44 120 70q72 26 159 26h430v-942h-133v266h-338l-185 -266h-153zM205 604q0 -92 64 -153q65 -62 182 -62h297v430h-297q-118 0 -182 -61t-64 -154z" />
<glyph unicode="&#x451;" horiz-adv-x="1075" d="M72 471q0 109 38 205q37 94 102 163q64 69 149 106q87 38 182 38q94 0 181 -38q85 -37 149 -106q67 -71 103 -163q38 -96 38 -205l-62 -61h-747q7 -66 37 -129t74 -104q46 -43 107 -69t130 -26q73 0 123 17q55 19 93 47q39 29 67 69q25 37 41 82l133 -27 q-16 -55 -56 -115q-37 -57 -94 -100q-53 -40 -134 -69q-76 -27 -171 -27q-98 0 -188 38q-88 37 -154 106q-65 68 -103 163q-38 96 -38 205zM205 532h676q-7 68 -37 130q-28 58 -74 103q-47 46 -103 70q-57 25 -124 25t-124 -25q-58 -25 -104 -70q-45 -43 -73 -103 q-30 -62 -37 -130zM264 1264q0 30 26 56t56 26t56 -26t26 -56q0 -31 -26 -57q-25 -25 -56 -25t-56 25q-26 26 -26 57zM612 1264q0 30 26 56t56 26q31 0 57 -26q25 -25 25 -56q0 -32 -25 -57t-57 -25q-31 0 -56 25q-26 26 -26 57z" />
<glyph unicode="&#x452;" horiz-adv-x="1095" d="M0 1053v125h143v235h133v-235h256v-125h-256v-367h11q32 45 82 86q43 35 99 61q58 27 136 27q84 0 156 -30t124 -85t81 -135q28 -78 28 -180v-369q0 -138 -83 -223q-82 -84 -214 -84q-34 0 -64 6q-18 4 -52 15q-25 8 -48 20l31 123q17 -14 35 -20q23 -11 42 -15 q26 -6 56 -6q71 0 117 49q47 50 47 135v369q0 148 -75 227q-75 80 -191 80q-78 0 -136 -36q-62 -38 -100 -76q-48 -53 -82 -113v-512h-133v1053h-143z" />
<glyph unicode="&#x453;" horiz-adv-x="798" d="M123 0v942h676v-123h-543v-819h-133zM297 1210l317 185l62 -123l-338 -144z" />
<glyph unicode="&#x454;" horiz-adv-x="1054" d="M72 471q0 107 39 201t105 163q63 65 154 108q86 40 183 40q86 0 159 -25q72 -25 124 -63t87 -89q33 -47 50 -99l-133 -31q-11 32 -35 67q-22 32 -59 60t-83 42q-48 15 -110 15q-68 0 -126 -26q-59 -27 -106 -72q-47 -46 -77 -105q-32 -64 -39 -125h389v-122h-389 q7 -61 39 -125q29 -57 78 -105q45 -44 106 -71q60 -27 125 -27q131 0 209 66q77 65 108 159l134 -31q-16 -59 -53 -118q-39 -61 -92 -102q-56 -43 -133 -70q-76 -27 -173 -27t-183 40q-90 42 -154 109q-67 70 -105 161q-39 93 -39 202z" />
<glyph unicode="&#x455;" horiz-adv-x="942" d="M41 246l133 20q15 -35 40 -67q27 -35 62 -60q38 -27 85 -42q48 -15 110 -15q70 0 121 15t86 41q32 24 52 57q18 30 18 61q0 54 -48 87q-45 31 -117 52q-62 19 -153 40q-78 18 -152 50q-71 30 -118 82t-47 140q0 53 24 103t73 88q46 36 119 61q71 24 163 24q80 0 145 -22 q62 -21 115 -58q48 -33 81 -76q32 -41 48 -79l-133 -21q-12 16 -38 46q-17 20 -53 43q-31 20 -71 32q-41 12 -94 12q-65 0 -108 -14q-47 -15 -77 -36q-31 -22 -46 -49t-15 -54q0 -59 47 -89q46 -29 118 -51q66 -20 152 -40q80 -19 153 -50q71 -30 118 -83t47 -138 q0 -58 -27 -111q-28 -54 -79 -95q-53 -43 -128 -66q-80 -25 -176 -25q-85 0 -160 25q-74 25 -125 64q-54 42 -90 92t-55 106z" />
<glyph unicode="&#x456;" horiz-adv-x="430" d="M123 1331q0 39 27 66q26 26 65 26q40 0 66 -26t26 -66q0 -39 -26 -65q-27 -27 -66 -27q-38 0 -65 27t-27 65zM150 0v942h133v-942h-133z" />
<glyph unicode="&#x457;" horiz-adv-x="430" d="M-39 1290q0 31 26 57q25 25 56 25t56 -25q26 -26 26 -57q0 -30 -26 -56t-56 -26t-56 26t-26 56zM154 0v942h133v-942h-133zM309 1290q0 31 26 57q25 25 56 25t56 -25q26 -26 26 -57q0 -30 -26 -56t-56 -26t-56 26t-26 56z" />
<glyph unicode="&#x458;" horiz-adv-x="413" d="M-184 -389l30 123q19 -15 35 -21q19 -9 42 -14q25 -6 57 -6q70 0 116 49q47 50 47 135v1065h133v-1065q0 -140 -82 -223q-83 -84 -214 -84q-35 0 -65 6q-25 5 -52 14q-18 6 -47 21zM117 1331q0 40 26 66t66 26q39 0 65 -26q27 -27 27 -66q0 -38 -27 -65t-65 -27 q-39 0 -66 27q-26 26 -26 65z" />
<glyph unicode="&#x459;" horiz-adv-x="1515" d="M20 0l216 942h583v-287h266q85 0 153 -25q67 -25 117 -70q48 -43 73 -103q26 -61 26 -129t-26 -129q-26 -62 -73 -104q-48 -43 -117 -69q-70 -26 -153 -26h-399v819h-348l-184 -819h-134zM819 123h266q110 0 172 59q64 61 64 146q0 84 -64 145q-62 59 -172 59h-266v-409z " />
<glyph unicode="&#x45a;" horiz-adv-x="1576" d="M123 0v942h133v-348h481v348h133v-348h318q152 0 240 -83t88 -214t-88 -214t-240 -83h-451v471h-481v-471h-133zM870 123h318q92 0 143 48t51 126t-51 126t-143 48h-318v-348z" />
<glyph unicode="&#x45b;" horiz-adv-x="1095" d="M0 1053v125h143v235h133v-235h256v-125h-256v-367h11q32 45 82 86q43 35 99 61q58 27 136 27q84 0 156 -30t124 -85t81 -135q28 -78 28 -180v-430h-133v430q0 148 -75 227q-75 80 -191 80q-78 0 -136 -36q-62 -38 -100 -76q-48 -53 -82 -113v-512h-133v1053h-143z" />
<glyph unicode="&#x45c;" horiz-adv-x="1034" d="M123 0v942h133v-410h307q53 0 88 36q35 37 35 98v102q0 85 53 140t162 55h51v-123h-41q-92 0 -92 -92v-103q0 -55 -17 -86q-18 -33 -40 -49q-24 -21 -55 -29v-10q36 -6 65 -27q26 -18 46 -51q22 -36 22 -96v-102q0 -93 92 -93h41v-122h-51q-110 0 -162 54q-53 55 -53 140 v102q0 61 -35 98q-34 36 -88 36h-328v-410h-133zM338 1210l317 185l62 -123l-338 -144z" />
<glyph unicode="&#x45e;" horiz-adv-x="1013" d="M61 942h134l174 -819h276l174 819h133l-204 -942q-28 -127 -61 -206q-35 -84 -76 -132q-43 -51 -94 -71q-53 -21 -118 -21q-34 0 -64 6q-25 5 -52 14q-18 6 -47 21l30 123q19 -15 35 -21q19 -9 42 -14q25 -6 56 -6q36 0 66 15q29 15 57 50q25 31 50 95q25 62 42 147h-348 zM246 1395h102q0 -70 42 -112t112 -42q69 0 111 42t42 112h103q0 -53 -20 -101t-54 -82t-82 -54q-45 -19 -100 -19q-56 0 -101 19q-48 20 -82 54t-54 82q-19 45 -19 101z" />
<glyph unicode="&#x45f;" horiz-adv-x="1054" d="M123 0v942h133v-819h543v819h133v-942h-338v-225h-133v225h-338z" />
<glyph unicode="&#x490;" d="M154 0v1413h811v205h141v-338h-809v-1280h-143z" />
<glyph unicode="&#x491;" horiz-adv-x="798" d="M123 0v942h543v205h133v-328h-543v-819h-133z" />
<glyph unicode="&#x2000;" horiz-adv-x="942" />
<glyph unicode="&#x2001;" horiz-adv-x="1884" />
<glyph unicode="&#x2002;" horiz-adv-x="942" />
<glyph unicode="&#x2003;" horiz-adv-x="1884" />
<glyph unicode="&#x2004;" horiz-adv-x="628" />
<glyph unicode="&#x2005;" horiz-adv-x="471" />
<glyph unicode="&#x2006;" horiz-adv-x="314" />
<glyph unicode="&#x2007;" horiz-adv-x="314" />
<glyph unicode="&#x2008;" horiz-adv-x="235" />
<glyph unicode="&#x2009;" horiz-adv-x="376" />
<glyph unicode="&#x200a;" horiz-adv-x="104" />
<glyph unicode="&#x2010;" horiz-adv-x="808" d="M41 563v133h727v-133h-727z" />
<glyph unicode="&#x2011;" horiz-adv-x="808" d="M41 563v133h727v-133h-727z" />
<glyph unicode="&#x2012;" horiz-adv-x="808" d="M41 563v133h727v-133h-727z" />
<glyph unicode="&#x2013;" horiz-adv-x="1228" d="M61 492v122h1106v-122h-1106z" />
<glyph unicode="&#x2014;" horiz-adv-x="1536" d="M61 492v122h1414v-122h-1414z" />
<glyph unicode="&#x2018;" horiz-adv-x="317" d="M61 1167q0 27 15 56q15 24 16 26l103 174h61l-61 -174q12 -6 24 -18t19 -26q8 -16 8 -38q0 -38 -27 -65t-65 -27q-39 0 -66 27t-27 65z" />
<glyph unicode="&#x2019;" horiz-adv-x="317" d="M61 1075l62 174q-15 7 -27 19q-9 9 -17 25q-7 14 -7 38q0 40 26 66t66 26q39 0 65 -26q27 -27 27 -66q0 -15 -5 -32q-4 -12 -11 -25q-3 -6 -8.5 -14.5t-6.5 -10.5l-102 -174h-62z" />
<glyph unicode="&#x201a;" horiz-adv-x="317" d="M61 -184l62 174q-17 8 -27 18q-8 8 -17 26q-7 14 -7 38q0 39 26 65q27 27 66 27q38 0 65 -27t27 -65q0 -15 -5 -32q-4 -14 -11 -26q-3 -6 -8.5 -14t-6.5 -10l-102 -174h-62z" />
<glyph unicode="&#x201c;" horiz-adv-x="604" d="M61 1167q0 27 15 56q15 24 16 26l103 174h61l-61 -174q12 -6 24 -18t19 -26q8 -16 8 -38q0 -38 -27 -65t-65 -27q-39 0 -66 27t-27 65zM348 1167q0 29 14 56q1 2 7.5 11t9.5 15l102 174h62l-62 -174q14 -7 25 -18q10 -10 18 -26t8 -38q0 -39 -26 -65q-27 -27 -66 -27 q-38 0 -65 27t-27 65z" />
<glyph unicode="&#x201d;" horiz-adv-x="604" d="M61 1075l62 174q-15 7 -27 19q-9 9 -17 25q-7 14 -7 38q0 40 26 66t66 26q39 0 65 -26q27 -27 27 -66q0 -15 -5 -32q-4 -12 -11 -25q-3 -6 -8.5 -14.5t-6.5 -10.5l-102 -174h-62zM348 1075l62 174q-15 7 -27 19q-9 9 -17 25t-8 38q0 39 27 66q26 26 66 26q39 0 65 -26 q27 -27 27 -66q0 -15 -5 -32q-3 -8 -12 -25q-2 -4 -14 -25l-102 -174h-62z" />
<glyph unicode="&#x201e;" horiz-adv-x="604" d="M61 -184l62 174q-17 8 -27 18q-8 8 -17 26q-7 14 -7 38q0 39 26 65q27 27 66 27q38 0 65 -27t27 -65q0 -15 -5 -32q-4 -14 -11 -26q-3 -6 -8.5 -14t-6.5 -10l-102 -174h-62zM348 -184l62 174q-16 8 -27 18q-8 8 -17 26q-8 16 -8 38q0 38 27 65t66 27q38 0 65 -27t27 -65 q0 -15 -5 -32q-3 -11 -12 -26q-3 -6 -8 -14.5t-6 -9.5l-102 -174h-62z" />
<glyph unicode="&#x2026;" horiz-adv-x="1126" d="M61 72q0 38 27 65t66 27q38 0 65 -27t27 -65q0 -39 -27 -66q-26 -26 -65 -26q-40 0 -66 26q-27 27 -27 66zM471 72q0 38 27 65t65 27q39 0 66 -27q26 -26 26 -65q0 -40 -26 -66t-66 -26q-39 0 -65 26q-27 27 -27 66zM881 72q0 39 26 65q27 27 66 27q38 0 65 -27t27 -65 q0 -39 -27 -66q-26 -26 -65 -26q-40 0 -66 26t-26 66z" />
<glyph unicode="&#x202f;" horiz-adv-x="376" />
<glyph unicode="&#x2039;" horiz-adv-x="675" d="M61 471l471 471l82 -82l-378 -389l378 -389l-82 -82z" />
<glyph unicode="&#x203a;" horiz-adv-x="675" d="M61 82l379 389l-379 389l82 82l471 -471l-471 -471z" />
<glyph unicode="&#x205f;" horiz-adv-x="471" />
<glyph unicode="&#x20ac;" horiz-adv-x="1658" d="M41 502v123h143q-5 11 -6 24q-1 9 -3 26q-1 10 -1 32q0 20 1 29q2 18 3 26q1 10 6 26h-143v123h164q35 125 103 227q68 101 161 178q91 75 203 117q111 42 229 42q131 0 238 -39q104 -38 187 -101q82 -62 134 -138q54 -79 76 -153l-143 -20q-23 59 -66 115 q-45 59 -104 102q-63 46 -142 73t-180 27q-91 0 -172 -32q-86 -34 -157 -90q-72 -57 -128 -137q-56 -81 -86 -171h553v-123h-583q-5 -16 -6 -26q0 -4 -1.5 -12.5t-2.5 -13.5q-1 -9 -1 -29q0 -22 1 -32q1 -6 2.5 -15.5t1.5 -10.5q1 -13 6 -24h583v-123h-553q30 -90 86 -171 q54 -77 128 -136q74 -58 157 -91q81 -32 172 -32q109 0 193 28t150 77q67 50 112 111q50 68 78 132l143 -21q-29 -86 -88 -171q-58 -83 -142 -147q-86 -65 -197 -104q-108 -38 -249 -38q-118 0 -229 42q-114 43 -203 116q-93 77 -161 178q-68 102 -103 227h-164z" />
<glyph unicode="&#x2122;" horiz-adv-x="1454" d="M20 1290v123h553v-123h-215v-512h-122v512h-216zM655 778v635h133l226 -287l225 287h133v-635h-123v441l-235 -297l-236 297v-441h-123z" />
<glyph unicode="&#x25fc;" horiz-adv-x="942" d="M0 0v942h942v-942h-942z" />
</font>
</defs>
</svg>
