<svg width="121" height="32" viewBox="0 0 121 32" fill="none" xmlns="http://www.w3.org/2000/svg">
<path d="M31.6906 0.417725V4.69601H36.5683V0.417725H38.5401V10.4352H36.5683V6.46999H31.6906V10.4352H29.7188V0.417725H31.6906Z" fill="white"/>
<path d="M43.3298 10.4348C42.6863 10.1636 42.1259 9.76705 41.6485 9.26618C41.1711 8.78617 40.7768 8.2018 40.5069 7.53394C40.2371 6.88703 40.0918 6.17742 40.0918 5.42615C40.0918 4.67488 40.2371 3.96527 40.5069 3.29741C40.7768 2.6505 41.1711 2.06613 41.6485 1.56525C42.1259 1.08525 42.6863 0.688736 43.3298 0.417464C43.9733 0.146193 44.6582 0 45.3847 0C46.1112 0 46.7961 0.146113 47.4396 0.417464C48.083 0.688816 48.6435 1.08525 49.1209 1.56525C49.5983 2.06613 49.9926 2.6505 50.2625 3.29741C50.5323 3.96527 50.6776 4.67488 50.6776 5.42615C50.6776 6.17742 50.5323 6.88703 50.2625 7.53394C49.9926 8.2018 49.5983 8.78617 49.1209 9.26618C48.6435 9.76705 48.083 10.1636 47.4396 10.4348C46.7961 10.7061 46.1112 10.8523 45.3847 10.8523C44.6582 10.8523 43.9733 10.7061 43.3298 10.4348ZM46.6508 8.78617C47.0451 8.59831 47.398 8.34792 47.7094 8.03482C48.0208 7.7218 48.249 7.32529 48.4358 6.88703C48.6226 6.44878 48.7057 5.9479 48.7057 5.42615C48.7057 4.9044 48.6226 4.4244 48.4358 3.96527C48.249 3.52701 48.0207 3.1305 47.7094 2.81748C47.3981 2.50438 47.0451 2.23311 46.6508 2.04525C46.2564 1.85748 45.8206 1.77398 45.3847 1.77398C44.9488 1.77398 44.513 1.85748 44.1186 2.04525C43.7242 2.23311 43.3714 2.50438 43.06 2.81748C42.7487 3.1305 42.5204 3.52701 42.3336 3.96527C42.1468 4.4244 42.0638 4.9044 42.0638 5.42615C42.0638 5.9479 42.1468 6.4487 42.3336 6.88703C42.5204 7.32529 42.7487 7.7218 43.06 8.03482C43.3714 8.34792 43.7242 8.59831 44.1186 8.78617C44.513 8.97395 44.9488 9.07832 45.3847 9.07832C45.8206 9.07832 46.2564 8.97395 46.6508 8.78617Z" fill="white"/>
<path d="M58.225 0.626376C58.5779 0.772488 58.9099 0.98114 59.1798 1.21074C59.4496 1.44035 59.6572 1.73258 59.8025 2.04551C59.9478 2.35861 60.0101 2.69242 60.0101 3.02639C60.0101 3.42298 59.9271 3.75679 59.7818 3.9864C59.6365 4.216 59.4705 4.40386 59.2836 4.54989C59.0553 4.69593 58.827 4.82117 58.5572 4.90466V5.09244C58.9931 5.13426 59.3874 5.25942 59.7403 5.4472C60.0516 5.61419 60.3215 5.86466 60.5706 6.19847C60.8196 6.53245 60.9441 6.99158 60.9441 7.59682C60.9441 7.97245 60.8611 8.32722 60.7158 8.66119C60.5497 9.01595 60.3214 9.3081 60.0309 9.55858C59.7403 9.82985 59.3874 10.0386 58.9931 10.1847C58.578 10.3517 58.1213 10.4351 57.6232 10.4351H52.2266V0.417725H57.0005C57.4363 0.417725 57.8514 0.480263 58.225 0.626376ZM54.1983 4.27862H57.0004C57.3117 4.27862 57.5815 4.17426 57.7683 3.9864C57.9552 3.79862 58.0382 3.54814 58.0382 3.23512C58.0382 2.96385 57.9344 2.73425 57.7269 2.50472C57.4985 2.29599 57.2703 2.19162 57.0005 2.19162H54.1984V4.27862H54.1983ZM58.1421 8.53603C58.3081 8.45254 58.4534 8.34817 58.578 8.20206C58.7025 8.07682 58.8063 7.93079 58.8685 7.7638C58.9308 7.61777 58.9722 7.45079 58.9722 7.30467C58.9722 6.94999 58.8477 6.61602 58.5779 6.34475C58.308 6.0734 57.9759 5.94816 57.6231 5.94816H54.1983V8.66127H57.6231C57.8099 8.66127 57.976 8.61952 58.1421 8.53603Z" fill="white"/>
<path d="M62.2069 3.25566C62.4767 2.58788 62.8296 2.00351 63.2654 1.5235C63.7013 1.0435 64.1995 0.667862 64.7599 0.396591C65.3203 0.125239 65.8807 0 66.4827 0C67.0016 0 67.4582 0.083493 67.8318 0.250398C68.2054 0.438257 68.5167 0.626035 68.7658 0.834767C69.0564 1.08517 69.3055 1.35652 69.4923 1.66953H69.6999V0.417384H71.6717V10.4348H69.6999V9.18268H69.4923C69.3054 9.49578 69.0564 9.76705 68.7658 10.0174C68.5168 10.2262 68.2054 10.414 67.8318 10.6018C67.4582 10.7687 67.0016 10.8522 66.4827 10.8522C65.8807 10.8522 65.3203 10.727 64.7599 10.4556C64.1995 10.1635 63.7013 9.78784 63.2654 9.30784C62.8296 8.82784 62.4767 8.26434 62.2069 7.59656C61.937 6.9287 61.8125 6.19822 61.8125 5.42607C61.8125 4.65392 61.9371 3.92352 62.2069 3.25566ZM68.9318 2.92169C68.6828 2.65041 68.3714 2.37914 67.9978 2.12866C67.6035 1.89906 67.1676 1.7739 66.6902 1.7739C66.2959 1.7739 65.943 1.85739 65.5901 2.0243C65.2372 2.1912 64.9259 2.42081 64.6561 2.73391C64.3863 3.04692 64.1787 3.44352 64.0334 3.88169C63.8673 4.34082 63.7843 4.86257 63.7843 5.42607C63.7843 5.98956 63.8674 6.51131 64.0334 6.94957C64.1786 7.40862 64.3862 7.78426 64.6561 8.09735C64.926 8.41045 65.2373 8.66085 65.5901 8.82775C65.9429 8.99466 66.2959 9.07815 66.6902 9.07815C67.1676 9.07815 67.6035 8.95291 67.9978 8.72339C68.3714 8.49378 68.6827 8.22251 68.9318 7.93037C69.2224 7.5964 69.4715 7.22076 69.6999 6.7825V4.06947C69.4715 3.65217 69.2225 3.27653 68.9318 2.92169Z" fill="white"/>
<path d="M82.0811 10.4352H80.1092V7.72213H77.3072L75.5429 10.4352H73.2598L75.3354 7.20038C74.9617 7.03339 74.6297 6.80379 74.3391 6.53252C74.0901 6.30291 73.8617 5.96902 73.6749 5.57251C73.4674 5.19688 73.3636 4.67513 73.3636 4.06989C73.3636 3.54814 73.4674 3.06813 73.6541 2.60901C73.841 2.17075 74.1107 1.77424 74.4636 1.46114C74.8164 1.14813 75.2523 0.876854 75.7712 0.688995C76.2901 0.501137 76.8713 0.417725 77.5147 0.417725H82.081V10.4352H82.0811ZM75.9165 2.73424C75.5222 3.08901 75.3354 3.54822 75.3354 4.06989C75.3354 4.59155 75.5222 5.05076 75.9165 5.40553C76.3109 5.76029 76.8298 5.94807 77.5148 5.94807H80.1093V2.19154H77.5148C76.8298 2.19162 76.3109 2.37948 75.9165 2.73424Z" fill="white"/>
<path d="M40.927 26.0521V17.8086H42.8988V26.0521H44.3518V30.0173H42.3799V27.826H29.7188V17.8086H31.6906V26.0521H35.3229V17.8086H37.2947V26.0521H40.927Z" fill="white"/>
<path d="M51.7735 17.8085C52.3754 18.0798 52.9151 18.4763 53.3925 18.9563C53.8698 19.4572 54.2434 20.0415 54.5133 20.6884C54.7831 21.3563 54.9284 22.0659 54.9284 22.8172L54.0982 23.6519H46.8335C46.8958 24.0485 46.9995 24.4032 47.1864 24.7372C47.3524 25.092 47.5807 25.3841 47.8506 25.6346C48.1204 25.9058 48.4317 26.0937 48.7846 26.2398C49.1375 26.3859 49.5318 26.4694 49.9469 26.4694C50.7771 26.4694 51.4206 26.2816 51.8772 25.9269C52.3131 25.5721 52.6453 25.1755 52.8528 24.6955L54.8246 25.0086C54.7001 25.4051 54.4926 25.7808 54.2227 26.1774C53.9529 26.5739 53.6 26.9078 53.2056 27.2208C52.7905 27.5339 52.3131 27.7634 51.7734 27.9721C51.2338 28.1599 50.6318 28.2434 49.9468 28.2434C49.2204 28.2434 48.5354 28.1182 47.9128 27.8468C47.2693 27.5547 46.7297 27.179 46.273 26.699C45.7956 26.219 45.4428 25.6555 45.1729 24.9877C44.9031 24.3199 44.7578 23.5894 44.7578 22.8173C44.7578 22.0451 44.9031 21.3146 45.1729 20.6468C45.4428 19.979 45.7956 19.3946 46.2523 18.9146C46.7089 18.4346 47.2486 18.059 47.8713 17.7877C48.4732 17.5164 49.1374 17.3911 49.8431 17.3911C50.5282 17.391 51.1717 17.5372 51.7735 17.8085ZM48.7431 19.3737C48.3903 19.5198 48.0997 19.7285 47.8298 19.979C47.56 20.2294 47.3524 20.5215 47.1865 20.8346C46.9996 21.1685 46.8959 21.5233 46.8336 21.878H52.8529C52.7906 21.5233 52.6869 21.1684 52.5208 20.8346C52.334 20.5215 52.1264 20.2294 51.8566 19.979C51.5867 19.7286 51.2961 19.5199 50.9433 19.3737C50.5905 19.2276 50.2376 19.165 49.8432 19.165C49.4488 19.165 49.096 19.2276 48.7431 19.3737Z" fill="white"/>
<path d="M65.8164 24.9877C65.5466 25.6555 65.2145 26.2189 64.7786 26.699C64.3427 27.179 63.8446 27.5546 63.2841 27.8467C62.7237 28.1181 62.1426 28.2433 61.5407 28.2433C61.0218 28.2433 60.5651 28.1598 60.1915 27.9929C59.8179 27.8051 59.5065 27.6173 59.2574 27.4086C58.9669 27.1582 58.7178 26.8868 58.531 26.5738H58.3234V31.9999H56.3516V17.8085H58.3234V19.0606H58.531C58.7178 18.7475 58.9669 18.4763 59.2574 18.2259C59.5065 18.0171 59.8179 17.8294 60.1915 17.6415C60.565 17.4746 61.0217 17.3911 61.5407 17.3911C62.1426 17.3911 62.7237 17.5164 63.2841 17.7877C63.8446 18.059 64.3427 18.4346 64.7786 18.9146C65.2145 19.3946 65.5466 19.979 65.8164 20.6468C66.0863 21.3146 66.2108 22.0451 66.2108 22.8173C66.2108 23.5894 66.0863 24.3198 65.8164 24.9877ZM59.0915 25.3216C59.3405 25.6137 59.6519 25.885 60.0255 26.1146C60.3992 26.3442 60.8351 26.4693 61.3331 26.4693C61.7275 26.4693 62.1012 26.3859 62.454 26.2189C62.8068 26.052 63.0974 25.8016 63.3673 25.4885C63.6371 25.1754 63.8447 24.7998 64.0107 24.3408C64.156 23.9025 64.239 23.3808 64.239 22.8173C64.239 22.2538 64.156 21.732 64.0107 21.2729C63.8447 20.8346 63.6371 20.4381 63.3673 20.1251C63.0974 19.812 62.8068 19.5825 62.454 19.4155C62.1012 19.2485 61.7276 19.1651 61.3331 19.1651C60.835 19.1651 60.3991 19.2903 60.0255 19.5199C59.6519 19.7703 59.3406 20.0416 59.0915 20.3129C58.801 20.6676 58.5518 21.0433 58.3235 21.4607V24.1738C58.5518 24.612 58.8009 24.9877 59.0915 25.3216Z" fill="white"/>
<path d="M70.4811 27.8682C69.8791 27.5969 69.3602 27.2421 68.9244 26.8039C68.4885 26.3656 68.1357 25.8439 67.8865 25.2386C67.6167 24.6543 67.4922 24.0281 67.4922 23.3395V18.7481C67.4922 17.6003 67.7827 16.682 68.3847 16.0351C68.9866 15.3882 69.8169 14.929 70.917 14.6786L73.719 14.0524C73.9266 14.0106 74.0927 13.9064 74.2379 13.7602C74.3832 13.6142 74.4455 13.4263 74.4455 13.2177V12.8003H76.3135V13.635C76.3135 14.2612 76.1683 14.7411 75.8569 15.0541C75.5456 15.3881 74.9644 15.6385 74.1341 15.8263L71.332 16.4525C70.8131 16.5567 70.3565 16.8072 70.0036 17.2037C69.6508 17.6002 69.464 18.122 69.464 18.748V20.1046C69.6715 19.7915 69.9206 19.5203 70.2111 19.2699C70.4602 19.0611 70.7716 18.8733 71.1659 18.6855C71.5603 18.5186 72.0169 18.4351 72.5773 18.4351C73.2 18.4351 73.802 18.5603 74.3624 18.8107C74.9228 19.082 75.421 19.4368 75.8569 19.8751C76.272 20.3134 76.6041 20.8351 76.8739 21.4194C77.123 22.0246 77.2475 22.6508 77.2475 23.3394C77.2475 24.0281 77.123 24.6542 76.8739 25.2385C76.6041 25.8438 76.2512 26.3655 75.8154 26.8038C75.3795 27.2421 74.8606 27.5968 74.2794 27.8682C73.6774 28.1186 73.0547 28.2438 72.3698 28.2438C71.6849 28.2438 71.0622 28.1187 70.4811 27.8682ZM73.4908 26.2195C73.8436 26.0735 74.1341 25.8439 74.404 25.5726C74.6738 25.3012 74.8814 24.9674 75.0474 24.5708C75.1927 24.1951 75.2758 23.7777 75.2758 23.3395C75.2758 22.9012 75.1927 22.4838 75.0474 22.0873C74.8814 21.7117 74.6738 21.3777 74.404 21.1065C74.1341 20.8352 73.8436 20.6056 73.4908 20.4386C73.1379 20.2926 72.7643 20.2091 72.3699 20.2091C71.9755 20.2091 71.6019 20.2925 71.2698 20.4386C70.917 20.6056 70.6056 20.8352 70.3358 21.1065C70.066 21.3777 69.8584 21.7117 69.7131 22.0873C69.547 22.4838 69.464 22.9013 69.464 23.3395C69.464 23.7777 69.5471 24.1951 69.7131 24.5708C69.8583 24.9674 70.0659 25.3012 70.3358 25.5726C70.6056 25.8439 70.917 26.0735 71.2698 26.2195C71.6226 26.3864 71.9755 26.4699 72.3699 26.4699C72.7643 26.4699 73.1378 26.3864 73.4908 26.2195Z" fill="white"/>
<path d="M80.7316 17.8086V24.5913H80.9392L85.9206 17.8086H87.8925V27.8261H85.9206V21.0434H85.7131L80.7316 27.8261H78.7598V17.8086H80.7316Z" fill="white"/>
<path d="M92.0264 17.8086V22.0869H96.9041V17.8086H98.876V27.8261H96.9041V23.8608H92.0264V27.826H90.0547V17.8086H92.0264Z" fill="white"/>
<path d="M108.194 23.0892C108.339 23.1936 108.485 23.3605 108.63 23.5692C108.755 23.7779 108.817 24.0492 108.817 24.3832V25.3223C108.817 25.9484 109.128 26.2614 109.751 26.2614H110.062V28.0353H109.543C108.609 28.0353 107.924 27.8475 107.488 27.451C107.053 27.0545 106.845 26.5327 106.845 25.844V24.8005C106.845 24.4458 106.762 24.1536 106.575 23.9449C106.388 23.7571 106.119 23.6528 105.807 23.6528H103.005V27.8267H101.033V17.8092H103.005V21.8788H105.6C105.911 21.8788 106.181 21.7744 106.368 21.5658C106.554 21.3779 106.637 21.0858 106.637 20.731V19.7919C106.637 19.1031 106.845 18.5814 107.281 18.185C107.717 17.7884 108.402 17.6006 109.336 17.6006H109.855V19.3746H109.543C108.92 19.3746 108.609 19.6876 108.609 20.3136V21.1484C108.609 21.4615 108.547 21.7119 108.443 21.8997C108.339 22.0875 108.215 22.2544 108.09 22.3588C107.945 22.484 107.758 22.5675 107.571 22.6092V22.8179C107.8 22.8597 108.007 22.9432 108.194 23.0892Z" fill="white"/>
<path d="M111 20.6468C111.27 19.979 111.623 19.3946 112.058 18.9146C112.494 18.4346 112.992 18.059 113.553 17.7877C114.113 17.5164 114.674 17.3911 115.276 17.3911C115.795 17.3911 116.251 17.4746 116.625 17.6415C116.998 17.8294 117.31 18.0171 117.559 18.2259C117.849 18.4763 118.098 18.7476 118.285 19.0606H118.493V17.8085H120.465V27.8259H118.493V26.5738H118.285C118.098 26.8869 117.849 27.1582 117.559 27.4086C117.31 27.6173 116.998 27.8051 116.625 27.9929C116.251 28.1598 115.795 28.2433 115.276 28.2433C114.674 28.2433 114.113 28.1181 113.553 27.8467C112.993 27.5546 112.494 27.179 112.058 26.699C111.623 26.2189 111.27 25.6555 111 24.9877C110.73 24.3198 110.605 23.5893 110.605 22.8172C110.605 22.045 110.73 21.3146 111 20.6468ZM117.725 20.3128C117.476 20.0415 117.164 19.7703 116.791 19.5198C116.396 19.2902 115.961 19.165 115.483 19.165C115.089 19.165 114.736 19.2485 114.383 19.4154C114.03 19.5823 113.719 19.8119 113.449 20.125C113.179 20.438 112.972 20.8346 112.826 21.2728C112.66 21.7319 112.577 22.2537 112.577 22.8172C112.577 23.3807 112.66 23.9024 112.826 24.3407C112.972 24.7997 113.179 25.1754 113.449 25.4885C113.719 25.8016 114.03 26.052 114.383 26.2189C114.736 26.3858 115.089 26.4693 115.483 26.4693C115.961 26.4693 116.397 26.344 116.791 26.1145C117.164 25.8849 117.476 25.6136 117.725 25.3215C118.015 24.9875 118.264 24.6119 118.493 24.1736V21.4607C118.265 21.0433 118.015 20.6676 117.725 20.3128Z" fill="white"/>
<path d="M4.60609 14.0003L1 13.9989V26.9312H6.39903H5.47286H10.539C11.939 26.5626 11.1496 23.8557 11.1496 23.8557C10.0448 24.6764 8.66655 25.725 7.52455 23.2007C2.92151 24.0421 2.16559 18.6875 4.37491 17.5897C2.67177 12.777 7.491 12.5349 8.725 13.3969C9.20172 9.69768 16.7441 8.93081 17.1398 14.2696C20.8602 12.4887 21.453 17.7649 19.7321 18.6875C20.8248 20.4614 19.4737 22.915 16.5637 21.8326C16.5637 21.8326 16.0021 25.0549 13.3791 23.5294C13.0597 26.1394 14.0829 26.9312 14.0829 26.9312H22.5047H22.2728H25.9762V13.9989V1.06665H13.4882V10.4439" stroke="white" stroke-width="1.06057" stroke-miterlimit="10"/>
</svg>
