<svg width="131" height="34" viewBox="0 0 131 34" fill="none" xmlns="http://www.w3.org/2000/svg">
<path d="M34.3958 0.443848V4.98953H39.7037V0.443848H41.8494V11.0874H39.7037V6.87439H34.3958V11.0874H32.25V0.443848H34.3958Z" fill="white"/>
<path d="M47.0627 11.087C46.3625 10.7988 45.7526 10.3775 45.2331 9.84534C44.7136 9.33533 44.2845 8.71444 43.9908 8.00483C43.6972 7.31749 43.5391 6.56353 43.5391 5.7653C43.5391 4.96707 43.6972 4.21311 43.9908 3.5035C44.2845 2.81616 44.7136 2.19526 45.2331 1.66308C45.7526 1.15308 46.3625 0.731783 47.0627 0.443557C47.7629 0.155331 48.5082 0 49.2988 0C50.0894 0 50.8347 0.155245 51.5349 0.443557C52.2351 0.731869 52.845 1.15308 53.3645 1.66308C53.884 2.19526 54.3131 2.81616 54.6068 3.5035C54.9004 4.21311 55.0585 4.96707 55.0585 5.7653C55.0585 6.56353 54.9004 7.31749 54.6068 8.00483C54.3131 8.71444 53.884 9.33533 53.3645 9.84534C52.845 10.3775 52.2351 10.7988 51.5349 11.087C50.8347 11.3753 50.0894 11.5306 49.2988 11.5306C48.5082 11.5306 47.7629 11.3753 47.0627 11.087ZM50.6766 9.33533C51.1057 9.13573 51.4896 8.86968 51.8285 8.53701C52.1674 8.20443 52.4158 7.78314 52.619 7.31749C52.8223 6.85184 52.9127 6.31966 52.9127 5.7653C52.9127 5.21094 52.8223 4.70093 52.619 4.2131C52.4157 3.74746 52.1673 3.32616 51.8285 2.99358C51.4897 2.66091 51.1057 2.37269 50.6766 2.17309C50.2474 1.97357 49.7731 1.88486 49.2988 1.88486C48.8245 1.88486 48.3502 1.97357 47.921 2.17309C47.4919 2.37269 47.1079 2.66091 46.7691 2.99358C46.4303 3.32616 46.1819 3.74746 45.9786 4.2131C45.7753 4.70093 45.685 5.21094 45.685 5.7653C45.685 6.31966 45.7754 6.85175 45.9786 7.31749C46.1819 7.78314 46.4303 8.20443 46.7691 8.53701C47.1079 8.86968 47.4919 9.13573 47.921 9.33533C48.3502 9.53485 48.8245 9.64573 49.2988 9.64573C49.7731 9.64573 50.2474 9.53485 50.6766 9.33533Z" fill="white"/>
<path d="M63.2697 0.66554C63.6537 0.820785 64.015 1.04248 64.3087 1.28643C64.6023 1.53039 64.8282 1.84088 64.9864 2.17338C65.1445 2.50604 65.2123 2.86072 65.2123 3.21556C65.2123 3.63694 65.1219 3.99162 64.9638 4.23557C64.8056 4.47953 64.625 4.67913 64.4217 4.83429C64.1733 4.98944 63.9248 5.12251 63.6312 5.21122V5.41074C64.1055 5.45518 64.5346 5.58816 64.9187 5.78768C65.2574 5.9651 65.5511 6.23123 65.8221 6.58591C66.0931 6.94075 66.2287 7.42858 66.2287 8.07165C66.2287 8.47076 66.1383 8.8477 65.9802 9.20255C65.7994 9.57948 65.551 9.88989 65.2349 10.156C64.9187 10.4442 64.5346 10.666 64.1055 10.8213C63.6538 10.9987 63.1569 11.0873 62.6148 11.0873H56.7422V0.443848H61.9371C62.4115 0.443848 62.8632 0.510295 63.2697 0.66554ZM58.8879 4.54606H61.9371C62.2758 4.54606 62.5694 4.43517 62.7727 4.23557C62.9761 4.03606 63.0664 3.76992 63.0664 3.43734C63.0664 3.14911 62.9535 2.90516 62.7276 2.66129C62.4791 2.43951 62.2307 2.32862 61.9371 2.32862H58.8879V4.54606H58.8879ZM63.1795 9.06956C63.3601 8.98085 63.5182 8.86996 63.6538 8.71472C63.7893 8.58165 63.9023 8.42649 63.97 8.24907C64.0377 8.09391 64.0828 7.91649 64.0828 7.76125C64.0828 7.38439 63.9473 7.02955 63.6537 6.74132C63.36 6.45301 62.9986 6.31994 62.6147 6.31994H58.8879V9.20263H62.6147C62.818 9.20263 62.9987 9.15828 63.1795 9.06956Z" fill="white"/>
<path d="M67.6049 3.45914C67.8985 2.74962 68.2825 2.12873 68.7569 1.61873C69.2312 1.10872 69.7733 0.709605 70.3831 0.421379C70.993 0.133067 71.6028 0 72.2579 0C72.8226 0 73.3195 0.0887115 73.726 0.266049C74.1326 0.465649 74.4713 0.665164 74.7424 0.886942C75.0586 1.15299 75.3297 1.4413 75.5329 1.77388H75.7588V0.443471H77.9046V11.087H75.7588V9.75662H75.5329C75.3296 10.0893 75.0586 10.3775 74.7424 10.6436C74.4714 10.8653 74.1326 11.0649 73.726 11.2645C73.3195 11.4418 72.8226 11.5305 72.2579 11.5305C71.6028 11.5305 70.993 11.3974 70.3831 11.1091C69.7733 10.7987 69.2312 10.3996 68.7569 9.8896C68.2825 9.3796 67.8986 8.78088 67.6049 8.07136C67.3112 7.36176 67.1758 6.58562 67.1758 5.76521C67.1758 4.9448 67.3113 4.16875 67.6049 3.45914ZM74.9231 3.1043C74.6521 2.81607 74.3132 2.52784 73.9067 2.26171C73.4775 2.01775 73.0032 1.88477 72.4837 1.88477C72.0546 1.88477 71.6706 1.97348 71.2866 2.15082C70.9025 2.32816 70.5638 2.57212 70.2702 2.90478C69.9766 3.23736 69.7507 3.65874 69.5925 4.12431C69.4118 4.61213 69.3215 5.16649 69.3215 5.76521C69.3215 6.36393 69.4119 6.91828 69.5925 7.38393C69.7506 7.87168 69.9765 8.27079 70.2702 8.60346C70.5639 8.93613 70.9026 9.20217 71.2866 9.37951C71.6705 9.55685 72.0546 9.64556 72.4837 9.64556C73.0032 9.64556 73.4775 9.51249 73.9067 9.26862C74.3132 9.02467 74.652 8.73644 74.9231 8.42604C75.2392 8.07119 75.5103 7.67207 75.7588 7.20643V4.32382C75.5103 3.88044 75.2393 3.48132 74.9231 3.1043Z" fill="white"/>
<path d="M89.2302 11.0874H87.0845V8.20479H84.0352L82.1154 11.0874H79.6309L81.8896 7.65043C81.4829 7.47301 81.1216 7.22905 80.8054 6.94083C80.5344 6.69687 80.2859 6.34212 80.0826 5.92082C79.8568 5.52171 79.7438 4.96735 79.7438 4.32428C79.7438 3.76992 79.8568 3.25991 80.06 2.77209C80.2633 2.30644 80.5569 1.88515 80.9408 1.55248C81.3248 1.2199 81.7991 0.931673 82.3638 0.732073C82.9285 0.532473 83.5609 0.443848 84.2611 0.443848H89.2301V11.0874H89.2302ZM82.5219 2.90516C82.0928 3.28209 81.8896 3.77 81.8896 4.32428C81.8896 4.87855 82.0929 5.36646 82.5219 5.7434C82.9511 6.12034 83.5157 6.31985 84.2611 6.31985H87.0845V2.32853H84.2611C83.5157 2.32862 82.9511 2.52822 82.5219 2.90516Z" fill="white"/>
<path d="M44.4468 27.6804V18.9216H46.5926V27.6804H48.1737V31.8934H46.0279V29.5652H32.25V18.9216H34.3958V27.6804H38.3484V18.9216H40.4942V27.6804H44.4468Z" fill="white"/>
<path d="M56.2497 18.9215C56.9047 19.2097 57.492 19.631 58.0115 20.141C58.5309 20.6732 58.9375 21.2941 59.2312 21.9814C59.5248 22.691 59.6829 23.445 59.6829 24.2432L58.7795 25.1302H50.874C50.9418 25.5515 51.0547 25.9284 51.258 26.2833C51.4386 26.6602 51.6871 26.9706 51.9808 27.2367C52.2744 27.525 52.6132 27.7246 52.9972 27.8798C53.3812 28.035 53.8103 28.1238 54.262 28.1238C55.1655 28.1238 55.8657 27.9242 56.3626 27.5473C56.8369 27.1704 57.1984 26.749 57.4242 26.239L59.5699 26.5716C59.4344 26.9929 59.2086 27.3921 58.9149 27.8134C58.6213 28.2347 58.2373 28.5895 57.8081 28.9221C57.3564 29.2547 56.8369 29.4986 56.2496 29.7203C55.6624 29.9199 55.0073 30.0086 54.2619 30.0086C53.4714 30.0086 52.726 29.8755 52.0485 29.5872C51.3483 29.2768 50.761 28.8777 50.2641 28.3677C49.7446 27.8577 49.3606 27.259 49.067 26.5495C48.7734 25.8399 48.6152 25.0637 48.6152 24.2433C48.6152 23.4229 48.7734 22.6468 49.067 21.9372C49.3606 21.2276 49.7446 20.6068 50.2415 20.0968C50.7384 19.5867 51.3257 19.1876 52.0033 18.8994C52.6583 18.6111 53.3811 18.478 54.1491 18.478C54.8946 18.4779 55.5948 18.6333 56.2497 18.9215ZM52.952 20.5846C52.5681 20.7397 52.2519 20.9615 51.9582 21.2276C51.6646 21.4937 51.4387 21.8041 51.2581 22.1368C51.0548 22.4915 50.9419 22.8685 50.8741 23.2454H57.4243C57.3565 22.8685 57.2436 22.4914 57.0629 22.1368C56.8596 21.8041 56.6338 21.4937 56.3401 21.2276C56.0464 20.9616 55.7302 20.7398 55.3463 20.5846C54.9623 20.4293 54.5783 20.3628 54.1492 20.3628C53.72 20.3628 53.3361 20.4292 52.952 20.5846Z" fill="white"/>
<path d="M71.5301 26.5494C71.2365 27.2589 70.8751 27.8576 70.4008 28.3676C69.9265 28.8776 69.3844 29.2767 68.7745 29.5872C68.1647 29.8755 67.5323 30.0085 66.8773 30.0085C66.3126 30.0085 65.8157 29.9198 65.409 29.7425C65.0025 29.5429 64.6637 29.3434 64.3926 29.1216C64.0765 28.8555 63.8054 28.5672 63.6021 28.2346H63.3762V33.9999H61.2305V18.9215H63.3762V20.2519H63.6021C63.8055 19.9192 64.0765 19.631 64.3926 19.365C64.6636 19.1432 65.0025 18.9437 65.409 18.7441C65.8156 18.5667 66.3125 18.478 66.8773 18.478C67.5323 18.478 68.1647 18.6111 68.7745 18.8994C69.3844 19.1876 69.9265 19.5867 70.4008 20.0968C70.8751 20.6068 71.2365 21.2277 71.5301 21.9372C71.8238 22.6468 71.9593 23.4229 71.9593 24.2433C71.9593 25.0637 71.8238 25.8398 71.5301 26.5494ZM64.2121 26.9041C64.4831 27.2146 64.8219 27.5028 65.2285 27.7467C65.6351 27.9907 66.1094 28.1237 66.6514 28.1237C67.0806 28.1237 67.4872 28.035 67.8711 27.8576C68.2551 27.6803 68.5713 27.4142 68.865 27.0816C69.1586 26.7489 69.3845 26.3498 69.5651 25.862C69.7232 25.3964 69.8136 24.842 69.8136 24.2433C69.8136 23.6446 69.7232 23.0902 69.5651 22.6024C69.3845 22.1368 69.1586 21.7155 68.865 21.3829C68.5713 21.0502 68.2551 20.8064 67.8711 20.6289C67.4872 20.4515 67.0807 20.3629 66.6514 20.3629C66.1093 20.3629 65.635 20.496 65.2285 20.7398C64.8219 21.0059 64.4832 21.2942 64.2121 21.5824C63.8959 21.9593 63.6248 22.3585 63.3763 22.802V25.6846C63.6248 26.1503 63.8958 26.5494 64.2121 26.9041Z" fill="white"/>
<path d="M76.608 29.6101C75.953 29.3218 75.3883 28.9447 74.914 28.4792C74.4396 28.0135 74.0557 27.4592 73.7846 26.8161C73.4909 26.1952 73.3555 25.53 73.3555 24.7983V19.9199C73.3555 18.7004 73.6717 17.7246 74.3267 17.0373C74.9817 16.35 75.8852 15.8621 77.0823 15.596L80.1315 14.9308C80.3574 14.8863 80.5382 14.7756 80.6962 14.6203C80.8542 14.4651 80.922 14.2655 80.922 14.0438V13.6003H82.9548V14.4872C82.9548 15.1525 82.7968 15.6625 82.4579 15.995C82.1191 16.3499 81.4867 16.6159 80.5832 16.8154L77.5339 17.4808C76.9693 17.5916 76.4724 17.8577 76.0884 18.279C75.7045 18.7003 75.5011 19.2547 75.5011 19.9198V21.3612C75.727 21.0285 75.998 20.7403 76.3142 20.4743C76.5852 20.2525 76.9241 20.053 77.3532 19.8534C77.7824 19.676 78.2793 19.5873 78.8891 19.5873C79.5668 19.5873 80.2218 19.7204 80.8317 19.9864C81.4415 20.2747 81.9836 20.6517 82.4579 21.1173C82.9096 21.583 83.271 22.1374 83.5647 22.7582C83.8357 23.4012 83.9712 24.0665 83.9712 24.7982C83.9712 25.53 83.8357 26.1951 83.5647 26.816C83.271 27.4591 82.8871 28.0134 82.4127 28.4791C81.9384 28.9447 81.3737 29.3217 80.7413 29.61C80.0862 29.876 79.4086 30.0091 78.6633 30.0091C77.918 30.0091 77.2404 29.8762 76.608 29.6101ZM79.8831 27.8583C80.2671 27.7031 80.5832 27.4592 80.8769 27.1709C81.1705 26.8826 81.3964 26.5279 81.5771 26.1065C81.7352 25.7074 81.8256 25.2639 81.8256 24.7983C81.8256 24.3326 81.7352 23.8891 81.5771 23.4678C81.3964 23.0687 81.1705 22.7139 80.8769 22.4257C80.5832 22.1374 80.2671 21.8935 79.8831 21.7161C79.4992 21.5609 79.0926 21.4722 78.6634 21.4722C78.2342 21.4722 77.8276 21.5608 77.4663 21.7161C77.0823 21.8935 76.7434 22.1374 76.4499 22.4257C76.1563 22.7139 75.9304 23.0687 75.7722 23.4678C75.5915 23.8891 75.5012 24.3327 75.5012 24.7983C75.5012 25.2639 75.5916 25.7074 75.7722 26.1065C75.9303 26.5279 76.1562 26.8825 76.4499 27.1709C76.7435 27.4592 77.0823 27.7031 77.4663 27.8583C77.8502 28.0356 78.2342 28.1243 78.6634 28.1243C79.0926 28.1243 79.4991 28.0356 79.8831 27.8583Z" fill="white"/>
<path d="M87.763 18.9216V26.1282H87.9889L93.4096 18.9216H95.5554V29.5652H93.4096V22.3586H93.1838L87.763 29.5652H85.6172V18.9216H87.763Z" fill="white"/>
<path d="M100.054 18.9216V23.4673H105.362V18.9216H107.508V29.5652H105.362V25.3521H100.054V29.5651H97.9082V18.9216H100.054Z" fill="white"/>
<path d="M117.648 24.5323C117.806 24.6432 117.964 24.8206 118.122 25.0423C118.258 25.2641 118.326 25.5523 118.326 25.9072V26.905C118.326 27.5703 118.664 27.9028 119.342 27.9028H119.681V29.7876H119.116C118.1 29.7876 117.354 29.588 116.88 29.1667C116.406 28.7454 116.18 28.1911 116.18 27.4594V26.3507C116.18 25.9737 116.089 25.6633 115.886 25.4415C115.683 25.242 115.389 25.1311 115.051 25.1311H112.001V29.5659H109.855V18.9224H112.001V23.2463H114.825C115.163 23.2463 115.457 23.1354 115.66 22.9137C115.864 22.7141 115.954 22.4037 115.954 22.0268V21.0289C115.954 20.2971 116.18 19.7428 116.654 19.3216C117.128 18.9003 117.874 18.7007 118.89 18.7007H119.455V20.5855H119.116C118.438 20.5855 118.1 20.9181 118.1 21.5833V22.4702C118.1 22.8029 118.032 23.0689 117.919 23.2685C117.806 23.4681 117.671 23.6454 117.535 23.7563C117.377 23.8894 117.174 23.9781 116.97 24.0223V24.2441C117.219 24.2885 117.445 24.3772 117.648 24.5323Z" fill="white"/>
<path d="M120.699 21.9372C120.992 21.2277 121.376 20.6068 121.851 20.0968C122.325 19.5867 122.867 19.1876 123.477 18.8994C124.087 18.6111 124.697 18.478 125.352 18.478C125.916 18.478 126.413 18.5667 126.82 18.7441C127.226 18.9437 127.565 19.1432 127.836 19.365C128.152 19.631 128.423 19.9193 128.627 20.2519H128.852V18.9215H130.998V29.5651H128.852V28.2346H128.627C128.423 28.5673 128.152 28.8555 127.836 29.1216C127.565 29.3434 127.226 29.5429 126.82 29.7425C126.413 29.9198 125.916 30.0085 125.352 30.0085C124.697 30.0085 124.087 29.8755 123.477 29.5872C122.867 29.2767 122.325 28.8776 121.851 28.3676C121.376 27.8576 120.992 27.2589 120.699 26.5494C120.405 25.8398 120.27 25.0636 120.27 24.2432C120.27 23.4228 120.405 22.6468 120.699 21.9372ZM128.017 21.5823C127.746 21.2941 127.407 21.0059 127 20.7397C126.571 20.4958 126.097 20.3628 125.578 20.3628C125.148 20.3628 124.764 20.4515 124.38 20.6288C123.996 20.8062 123.658 21.0501 123.364 21.3828C123.07 21.7154 122.845 22.1368 122.686 22.6023C122.506 23.0902 122.415 23.6445 122.415 24.2432C122.415 24.842 122.506 25.3963 122.686 25.862C122.844 26.3497 123.07 26.7488 123.364 27.0815C123.658 27.4142 123.996 27.6802 124.38 27.8575C124.764 28.0349 125.148 28.1236 125.578 28.1236C126.097 28.1236 126.571 27.9905 127 27.7467C127.407 27.5027 127.746 27.2145 128.017 26.9041C128.333 26.5492 128.604 26.1501 128.852 25.6845V22.8019C128.604 22.3585 128.333 21.9593 128.017 21.5823Z" fill="white"/>
<path d="M4.89829 14.6347L1 14.6333V28.1332H6.83651H5.8353H11.3119C12.8254 27.7485 11.972 24.9228 11.972 24.9228C10.7777 25.7795 9.28777 26.8741 8.05324 24.239C3.07721 25.1173 2.26004 19.5277 4.64837 18.3817C2.80724 13.3578 8.01697 13.105 9.35096 14.0048C9.8663 10.1432 18.0199 9.34269 18.4476 14.9158C22.4695 13.0568 23.1103 18.5646 21.25 19.5277C22.4312 21.3795 20.9707 23.9408 17.8248 22.8109C17.8248 22.8109 17.2177 26.1746 14.3822 24.5822C14.0369 27.3068 15.143 28.1333 15.143 28.1333H24.2472H23.9965H28V14.6333V1.1333H14.5001V10.9222" stroke="white" stroke-miterlimit="10"/>
</svg>
