<svg width="40" height="55" viewBox="0 0 40 55" fill="none" xmlns="http://www.w3.org/2000/svg">
<path fill-rule="evenodd" clip-rule="evenodd" d="M2.33754 10.7709C-3.28814 19.924 2.21648 31.7876 8.54964 40.8382L12.7415 46.343C16.7631 51.2403 20.0086 54.4444 20.0086 54.4444C42.5417 31.5257 39.9052 18.3599 39.9052 18.3599C39.9052 18.3599 39.1523 3.2161 24.0647 0.395387C8.97714 -2.42532 2.33754 10.7709 2.33754 10.7709ZM29.3237 19.7222C29.3237 25.0917 25.0306 29.4444 19.7347 29.4444C14.4388 29.4444 10.1456 25.0917 10.1456 19.7222C10.1456 14.3528 14.4388 10 19.7347 10C25.0306 10 29.3237 14.3528 29.3237 19.7222Z" fill="#253C4D"/>
</svg>
