<svg width="42" height="42" viewBox="0 0 42 42" fill="none" xmlns="http://www.w3.org/2000/svg">
<path d="M19.1011 40.6169V8.39899C19.1011 4.10061 16.1617 0.617188 12.5346 0.617188H11.1349C7.50782 0.617188 4.56836 4.10061 4.56836 8.39899V40.6169" stroke="white" stroke-miterlimit="10"/>
<path d="M15.9141 40.6068H22.2866" stroke="white" stroke-miterlimit="10" stroke-linecap="round"/>
<path d="M1.38281 40.6171H7.75532" stroke="white" stroke-miterlimit="10" stroke-linecap="round"/>
<path d="M9.00781 14.0937V8.59276C9.00781 7.02249 10.2651 5.75037 11.8171 5.75037C13.3888 5.75037 14.6633 7.03988 14.6633 8.63003V14.0912" stroke="white" stroke-miterlimit="10" stroke-linecap="round"/>
<path d="M24.7428 25.3886C24.7477 25.4209 24.7551 25.4556 24.7576 25.4904C26.6165 40.8726 35.5994 40.8528 40.0467 40.5447C40.8006 40.4925 41.3826 39.8614 41.3826 39.0986C41.3826 37.8712 41.3826 36.1668 41.3826 35.5953C41.3826 35.4487 41.3605 35.3021 41.3163 35.1605C41.137 34.599 40.5624 33.2424 39.1528 33.1877C37.3749 33.1182 33.9566 34.917 32.7238 29.0384C31.4935 23.1599 31.3486 13.9593 19.6915 14.0985C8.03679 14.2376 4.56445 14.0985 4.56445 14.0985V21.3983H20.7622C20.7646 21.3958 24.0994 21.6691 24.7428 25.3886Z" stroke="white" stroke-miterlimit="10" stroke-linecap="round"/>
<path d="M9.00774 21.3961V34.0974C9.00774 34.6093 8.71306 35.0242 8.35207 35.0242H4.57031" stroke="white" stroke-miterlimit="10" stroke-linecap="round"/>
<path d="M4.5332 25.7864H9.00746" stroke="white" stroke-miterlimit="10"/>
<path d="M4.57031 30.3704H9.00774" stroke="white" stroke-miterlimit="10" stroke-linecap="round"/>
<path d="M21.8262 17.9747C21.8262 17.9747 27.6265 18.8617 28.3608 28.4697" stroke="white" stroke-miterlimit="10" stroke-linecap="round"/>
<path d="M29.1938 31.1929C29.19 31.1937 29.1833 31.1946 29.1729 31.1947C29.1633 31.1947 29.1567 31.1939 29.1527 31.1931C29.1486 31.1856 29.1406 31.1669 29.1406 31.1362C29.1407 31.1049 29.1491 31.0857 29.1534 31.0782C29.1573 31.0775 29.1639 31.0767 29.1738 31.0767C29.1842 31.0767 29.1911 31.0775 29.1953 31.0783C29.1966 31.0808 29.1985 31.0847 29.2003 31.0902C29.2042 31.1015 29.207 31.1168 29.207 31.1342C29.207 31.1663 29.198 31.1857 29.1938 31.1929Z" fill="white" stroke="white"/>
</svg>
