<svg width="95" height="97" viewBox="0 0 95 97" fill="none" xmlns="http://www.w3.org/2000/svg">
<circle cx="47" cy="49" r="46" fill="#253C4D"/>
<path d="M43.3362 45.1496L43.6465 43.8003L39.5428 41.3575C39.4987 41.3314 39.4472 41.321 39.3965 41.3279C39.3458 41.3348 39.2989 41.3585 39.2632 41.3954C39.2275 41.4323 39.2051 41.4801 39.1995 41.5313C39.1938 41.5825 39.2054 41.6341 39.2323 41.6779L41.7571 45.753L43.0882 45.3981C43.1481 45.3834 43.2028 45.3524 43.2465 45.3086C43.2902 45.2648 43.3212 45.2099 43.3362 45.1496Z" fill="white" stroke="white" stroke-linecap="round" stroke-linejoin="round"/>
<path d="M50.498 52.6944L50.195 54.0436L54.2988 56.489C54.3427 56.5142 54.3936 56.5241 54.4437 56.5171C54.4937 56.5101 54.5401 56.4867 54.5755 56.4504C54.6109 56.4141 54.6335 56.367 54.6396 56.3165C54.6457 56.2659 54.635 56.2148 54.6093 56.171L52.0845 52.0959L50.7533 52.4409C50.6914 52.4549 50.6347 52.4861 50.5896 52.5309C50.5445 52.5757 50.5128 52.6324 50.498 52.6944Z" fill="white" stroke="white" stroke-linecap="round" stroke-linejoin="round"/>
<path d="M43.1742 52.532L41.8351 52.2191L39.409 56.3537C39.3818 56.3979 39.3704 56.4503 39.3767 56.502C39.3831 56.5537 39.4068 56.6017 39.444 56.6379C39.4811 56.6742 39.5295 56.6966 39.581 56.7013C39.6325 56.7061 39.684 56.693 39.7271 56.6641L43.7709 54.1208L43.4282 52.7794C43.4126 52.7186 43.3806 52.6634 43.3358 52.6197C43.291 52.5761 43.2351 52.5457 43.1742 52.532Z" fill="white" stroke="white" stroke-linecap="round" stroke-linejoin="round"/>
<path d="M50.6626 45.3074L52.0017 45.6203L54.4328 41.4955C54.4586 41.451 54.469 41.3991 54.4621 41.3481C54.4553 41.297 54.4317 41.2498 54.3951 41.2138C54.3585 41.1778 54.3111 41.1552 54.2602 41.1495C54.2094 41.1438 54.1582 41.1555 54.1147 41.1826L50.0734 43.7258L50.4087 45.0649C50.4251 45.1247 50.4574 45.179 50.5022 45.2217C50.5469 45.2644 50.6024 45.294 50.6626 45.3074Z" fill="white" stroke="white" stroke-linecap="round" stroke-linejoin="round"/>
<path d="M41.7582 45.753L37.7547 46.7833L29.9981 48.7893C29.9241 48.8085 29.8586 48.8521 29.8122 48.9132C29.7657 48.9743 29.741 49.0494 29.7419 49.1263C29.7429 49.2033 29.7694 49.2777 29.8173 49.3377C29.8652 49.3977 29.9317 49.4397 30.0061 49.4571L37.8088 51.2809L41.8359 52.2147" stroke="white" stroke-linecap="round" stroke-linejoin="round"/>
<path d="M50.072 43.725L49.0488 39.6909L47.0443 31.8725C47.0253 31.7979 46.982 31.732 46.9213 31.6851C46.8607 31.6383 46.7862 31.6134 46.7098 31.6143C46.6334 31.6152 46.5596 31.642 46.5001 31.6902C46.4406 31.7385 46.3988 31.8054 46.3816 31.8804L44.5779 39.7446L43.6519 43.8022" stroke="white" stroke-linecap="round" stroke-linejoin="round"/>
<path d="M52.0777 52.0964L56.0812 51.0661L63.8379 49.0601C63.9118 49.041 63.9773 48.9973 64.0237 48.9362C64.0702 48.8751 64.0949 48.8001 64.094 48.7231C64.0931 48.6462 64.0665 48.5717 64.0186 48.5118C63.9707 48.4518 63.9043 48.4097 63.8298 48.3924L56.0271 46.5685L52 45.6348" stroke="white" stroke-linecap="round" stroke-linejoin="round"/>
<path d="M43.7695 54.1211L44.7928 58.1577L46.79 65.9787C46.809 66.0532 46.8523 66.1192 46.913 66.166C46.9736 66.2128 47.0481 66.2377 47.1245 66.2368C47.2009 66.2359 47.2747 66.2092 47.3342 66.1609C47.3938 66.1127 47.4355 66.0457 47.4527 65.9707L49.2686 58.1039L50.1945 54.0439" stroke="white" stroke-linecap="round" stroke-linejoin="round"/>
<path d="M54.4558 75.1256C53.9171 74.5631 53.2731 74.114 52.561 73.8041C51.8725 73.4885 51.1226 73.3325 50.3665 73.3477C49.6466 73.3522 48.9354 73.5057 48.2769 73.7988C47.6256 74.0976 47.0349 74.5156 46.5349 75.0315C46.0266 75.5609 45.6171 76.1783 45.3261 76.8541C45.0075 77.5707 44.8195 78.3394 44.7709 79.1232L42.7795 79.1471L42.7175 73.9887L40.9421 74.0101L41.0856 85.9453L42.861 85.924L42.7994 80.8035L44.8284 80.7791C44.8944 81.5435 45.1009 82.289 45.4373 82.9774C45.7423 83.6416 46.1669 84.2431 46.6893 84.7515C47.2065 85.2491 47.8058 85.6519 48.4604 85.9419C49.1258 86.2191 49.8405 86.3555 50.5603 86.3426C51.316 86.335 52.061 86.1613 52.7431 85.8336C53.4464 85.4965 54.0787 85.0261 54.6054 84.4481C55.1405 83.8467 55.5562 83.1476 55.8302 82.3886C56.4488 80.7152 56.4266 78.8694 55.7679 77.2113C55.4641 76.4394 55.019 75.7319 54.4558 75.1256ZM54.1503 81.7556C53.9508 82.3159 53.6585 82.8379 53.2858 83.2996C52.9359 83.71 52.5089 84.0465 52.0294 84.2897C51.5678 84.5277 51.0586 84.6569 50.5402 84.6673C50.0304 84.6714 49.5269 84.5542 49.0705 84.3253C48.5822 84.1117 48.1457 83.794 47.791 83.394C47.3813 82.9505 47.0566 82.4345 46.8332 81.872C46.5972 81.2408 46.4746 80.5723 46.4713 79.8979C46.4589 79.2205 46.5652 78.5463 46.7855 77.9062C46.9954 77.3385 47.3076 76.8148 47.7064 76.3616C48.053 75.955 48.4814 75.6272 48.9632 75.3999C49.4185 75.1747 49.9172 75.0524 50.4244 75.0415C50.9406 75.0422 51.4508 75.1521 51.9221 75.3643C52.4029 75.5908 52.837 75.9068 53.2016 76.2955C53.5853 76.7481 53.8901 77.263 54.103 77.8182C54.3386 78.4528 54.4611 79.1243 54.465 79.8018C54.4744 80.4666 54.3679 81.128 54.1503 81.7556Z" fill="white"/>
<path d="M19.0566 50.0125C18.6629 49.7834 18.2313 49.6282 17.7828 49.5545L17.7807 49.3841C18.1726 49.2889 18.5434 49.1207 18.8739 48.8882C19.1658 48.6664 19.4197 48.398 19.6254 48.0934C19.8648 47.7044 19.9776 47.2496 19.9479 46.7927C19.9449 46.3274 19.8366 45.869 19.6312 45.4523C19.4193 45.0198 19.1203 44.6365 18.7533 44.3269C18.3396 43.9886 17.8729 43.7223 17.3722 43.5388C16.7992 43.3457 16.1974 43.2537 15.5934 43.2668C15.0118 43.2633 14.4342 43.3632 13.8871 43.5618C13.4085 43.7409 12.9613 43.9955 12.5621 44.3161C12.193 44.6191 11.8794 44.9849 11.6356 45.3969C11.3889 45.8036 11.1983 46.2422 11.0688 46.7006L12.8945 46.9627C13.0759 46.398 13.3924 45.887 13.8161 45.4748C14.3239 45.0648 14.9627 44.8552 15.6128 44.8853C15.9706 44.8759 16.3273 44.9293 16.6669 45.043C16.9532 45.1441 17.2215 45.2911 17.4613 45.4783C17.6741 45.6521 17.8521 45.8653 17.9856 46.1063C18.0998 46.3251 18.1637 46.567 18.1726 46.814C18.1812 47.0583 18.1258 47.3006 18.0119 47.5164C17.8935 47.7639 17.723 47.9823 17.5123 48.1567C17.2805 48.3544 17.0193 48.514 16.7382 48.6299C16.4206 48.7504 16.084 48.8122 15.7446 48.8122L14.6456 48.8254L14.665 50.4439L15.7546 50.4308C16.1557 50.416 16.5564 50.4688 16.9403 50.5869C17.2584 50.6759 17.5589 50.8196 17.8285 51.0117C18.0498 51.1844 18.2372 51.3973 18.3809 51.6393C18.4966 51.861 18.5606 52.1062 18.568 52.3565C18.5697 52.6336 18.5053 52.9071 18.3803 53.1539C18.2451 53.4334 18.0528 53.6809 17.816 53.8802C17.5408 54.1126 17.224 54.2899 16.8828 54.4026C16.4964 54.5357 16.0911 54.6046 15.6827 54.6063C15.2928 54.6152 14.9043 54.5558 14.5344 54.4308C14.1925 54.3308 13.872 54.1678 13.5892 53.9499C13.3162 53.7504 13.0809 53.5031 12.8946 53.2199C12.7278 52.9508 12.5919 52.6634 12.4897 52.3633L10.7174 52.6402C10.8857 53.1515 11.1189 53.6387 11.4113 54.0897C11.6955 54.5177 12.0494 54.8943 12.4581 55.2036C12.8896 55.5313 13.372 55.7846 13.8857 55.9532C14.4947 56.1425 15.1308 56.2277 15.7677 56.2051C16.4291 56.2088 17.0861 56.0952 17.7084 55.8694C18.2459 55.6737 18.7425 55.3788 19.1729 54.9998C19.5627 54.6619 19.8778 54.2453 20.0977 53.777C20.3106 53.3204 20.414 52.8198 20.3995 52.3156C20.4161 51.7922 20.2756 51.2759 19.9965 50.8342C19.7465 50.4944 19.4256 50.2139 19.0566 50.0125Z" fill="white"/>
<path d="M83.9525 48.1601C83.6966 47.8094 83.3736 47.5139 83.0026 47.2911C82.5826 47.0515 82.1219 46.8933 81.6441 46.8247L81.6431 46.7395C81.8951 46.6449 82.124 46.4969 82.3143 46.3054C82.503 46.1164 82.6591 45.897 82.7762 45.6562C82.9226 45.3222 82.9891 44.9582 82.9701 44.5936C82.9664 44.1732 82.8749 43.7583 82.7018 43.3757C82.517 42.998 82.2609 42.6602 81.9477 42.3813C81.6105 42.0867 81.2224 41.8571 80.8028 41.704C80.3158 41.5502 79.8073 41.4764 79.297 41.4855L74.2246 41.5465L74.3681 53.4817L80.2859 53.4106C80.8715 53.4072 81.452 53.3009 82.0014 53.0965C82.4784 52.9201 82.9182 52.6547 83.2978 52.3142C83.6505 51.9947 83.9282 51.6001 84.1107 51.159C84.2979 50.7251 84.3915 50.2561 84.3854 49.7831C84.413 49.2098 84.2616 48.6422 83.9525 48.1601ZM76.0288 43.1435L79.3259 43.1039C79.8248 43.067 80.3193 43.2198 80.712 43.5321C80.867 43.6659 80.9912 43.8321 81.0762 44.019C81.1612 44.2059 81.2048 44.4092 81.2042 44.6148C81.2158 44.8322 81.1803 45.0495 81.0999 45.2516C81.0196 45.4537 80.8965 45.6357 80.7391 45.7848C80.3578 46.114 79.8653 46.2827 79.3638 46.2557L76.0667 46.2953L76.0288 43.1435ZM82.0256 51.203C81.5383 51.617 80.9123 51.8277 80.2758 51.792L76.1334 51.8418L76.0862 47.9138L80.2286 47.864C80.8641 47.813 81.4949 48.0086 81.992 48.4108C82.187 48.5863 82.3436 48.8009 82.4516 49.0409C82.5597 49.2808 82.6168 49.5408 82.6194 49.8043C82.6379 50.0604 82.602 50.3174 82.5142 50.5584C82.4264 50.7994 82.2886 51.0188 82.1101 51.202L82.0256 51.203Z" fill="white"/>
<path d="M42.0281 20.9793C42.5941 21.5599 43.2665 22.0244 44.008 22.3471C44.7493 22.6767 45.5524 22.8414 46.3625 22.83C47.0874 22.8304 47.8071 22.7065 48.4907 22.4636C49.1006 22.239 49.6684 21.9122 50.1701 21.4968C50.6443 21.1407 51.0524 20.7032 51.3759 20.2043C51.6751 19.7543 51.9096 19.2639 52.0724 18.7476L50.2846 18.5135C50.1313 18.8504 49.9431 19.17 49.7229 19.4669C49.4886 19.7918 49.207 20.0792 48.8877 20.3194C48.5534 20.5831 48.1781 20.7891 47.777 20.9292C47.3185 21.0878 46.8367 21.1672 46.3518 21.164C45.7701 21.1754 45.1935 21.0528 44.6659 20.8056C44.1409 20.5562 43.6655 20.2123 43.2633 19.7907C42.8502 19.3498 42.5251 18.8331 42.3055 18.2686C41.8001 17.061 41.7838 15.7021 42.26 14.4827C42.4694 13.9091 42.7815 13.3792 43.1807 12.9191C43.5691 12.5225 44.0229 12.1967 44.5219 11.9564C45.0514 11.6786 45.639 11.532 46.236 11.5287C46.6821 11.5173 47.1271 11.5791 47.5535 11.7117C47.9247 11.8358 48.2776 12.0099 48.6025 12.2292C48.8906 12.4471 49.1494 12.7018 49.3726 12.9867C49.5865 13.2546 49.7609 13.5522 49.8905 13.8703L51.6722 13.5933C51.4989 13.1064 51.2627 12.6445 50.9699 12.2197C50.6515 11.7701 50.2665 11.3725 49.8283 11.0406C48.7842 10.2561 47.5087 9.84797 46.2068 9.88194C45.3967 9.89001 44.5978 10.074 43.8646 10.4213C43.1335 10.7617 42.473 11.2386 41.918 11.8268C41.3491 12.4257 40.8985 13.1283 40.5901 13.8969C40.2591 14.699 40.0967 15.5616 40.1132 16.4301C40.1164 17.2959 40.2995 18.1515 40.6507 18.9417C40.9729 19.7053 41.4409 20.3976 42.0281 20.9793Z" fill="white"/>
</svg>
