<svg width="122" height="125" viewBox="0 0 122 125" fill="none" xmlns="http://www.w3.org/2000/svg">
<g clip-path="url(#clip0)">
<path d="M51.4118 57.8989L51.0571 55.193L41.7965 53.5025C41.697 53.4848 41.5948 53.501 41.5059 53.5486C41.4171 53.5961 41.3467 53.6723 41.3061 53.7649C41.2655 53.8575 41.2569 53.9613 41.2818 54.0598C41.3066 54.1582 41.3635 54.2456 41.4433 54.3081L48.9097 60.0994L51.1246 58.5285C51.225 58.4601 51.3049 58.3653 51.3555 58.2543C51.4061 58.1434 51.4256 58.0205 51.4118 57.8989Z" stroke="white" stroke-linecap="round" stroke-linejoin="round"/>
<path d="M69.8323 66.9112L70.2004 69.6118L79.4628 71.3068C79.5612 71.3232 79.6621 71.3065 79.7498 71.2591C79.8374 71.2118 79.9069 71.1366 79.9474 71.0452C79.9879 70.9538 79.9972 70.8513 79.9737 70.7538C79.9502 70.6562 79.8954 70.569 79.8177 70.5058L72.3513 64.7145L70.1294 66.2673C70.0248 66.3356 69.9415 66.4322 69.889 66.546C69.8365 66.6598 69.8168 66.7863 69.8323 66.9112V66.9112Z" stroke="white" stroke-linecap="round" stroke-linejoin="round"/>
<path d="M56.1893 71.6483L53.5003 71.9912L51.862 81.2972C51.8422 81.3978 51.8572 81.5023 51.9045 81.5935C51.9518 81.6846 52.0286 81.7569 52.1222 81.7983C52.2157 81.8397 52.3204 81.8478 52.4188 81.8212C52.5172 81.7946 52.6034 81.7349 52.6631 81.652L58.384 74.1729L56.8285 71.9306C56.7578 71.8291 56.6607 71.749 56.5479 71.6992C56.4351 71.6494 56.311 71.6318 56.1893 71.6483V71.6483Z" stroke="white" stroke-linecap="round" stroke-linejoin="round"/>
<path d="M65.0504 53.1526L67.7393 52.8097L69.3935 43.5182C69.4106 43.4183 69.394 43.3154 69.3463 43.2258C69.2985 43.1362 69.2224 43.0651 69.1301 43.0237C69.0378 42.9824 68.9345 42.9733 68.8368 42.9978C68.739 43.0223 68.6524 43.079 68.5907 43.1589L62.8743 50.6362L64.4146 52.8792C64.4861 52.9785 64.5831 53.0565 64.6951 53.1046C64.8072 53.1528 64.93 53.1694 65.0504 53.1526Z" stroke="white" stroke-linecap="round" stroke-linejoin="round"/>
<path d="M48.9095 60.0993L42.2225 64.7558L29.2735 73.7957C29.15 73.882 29.0591 74.0076 29.0153 74.1524C28.9716 74.2972 28.9775 74.4529 29.0321 74.5944C29.0867 74.7359 29.187 74.8552 29.3167 74.933C29.4464 75.0109 29.5981 75.0428 29.7476 75.0237L45.4154 73.0269L53.4967 71.9822" stroke="white" stroke-linecap="round" stroke-linejoin="round"/>
<path d="M62.8749 50.6362L58.2104 43.8877L49.1309 30.8236C49.0445 30.699 48.9191 30.6069 48.7749 30.5621C48.6306 30.5174 48.4759 30.5225 48.3354 30.5768C48.1949 30.631 48.0769 30.7312 48.0001 30.8612C47.9234 30.9913 47.8924 31.1437 47.9121 31.2941L49.9884 47.0617L51.0684 55.1939" stroke="white" stroke-linecap="round" stroke-linejoin="round"/>
<path d="M72.3372 64.7198L79.0242 60.0634L91.9732 51.0234C92.0967 50.9372 92.1876 50.8116 92.2314 50.6667C92.2752 50.5219 92.2693 50.3663 92.2146 50.2247C92.16 50.0832 92.0598 49.964 91.93 49.8861C91.8003 49.8083 91.6486 49.7763 91.4992 49.7954L75.8313 51.7923L67.75 52.8369" stroke="white" stroke-linecap="round" stroke-linejoin="round"/>
<path d="M58.3828 74.1731L63.0491 80.9261L72.1169 93.9999C72.2033 94.1245 72.3287 94.2166 72.4729 94.2614C72.6172 94.3061 72.7719 94.301 72.9124 94.2467C73.0529 94.1925 73.1709 94.0923 73.2477 93.9623C73.3244 93.8322 73.3554 93.6798 73.3357 93.5294L71.28 77.7486L70.1983 69.6119" stroke="white" stroke-linecap="round" stroke-linejoin="round"/>
<path d="M44.6088 26.3235C44.9836 26.5007 45.3886 26.6033 45.8015 26.6256C46.2154 26.6513 46.6296 26.587 47.0157 26.437C47.3632 26.3079 47.6859 26.1202 47.9701 25.8818C48.2223 25.6655 48.4361 25.4075 48.6023 25.119C48.766 24.8638 48.8835 24.5814 48.9495 24.2847C49.0127 24.0157 49.0375 23.7388 49.0234 23.4624L48.125 23.6692C48.1117 23.8579 48.0785 24.0447 48.026 24.2262C47.9717 24.4236 47.888 24.6116 47.7778 24.7837C47.6647 24.9696 47.5217 25.1353 47.3545 25.2739C47.1631 25.4317 46.9463 25.5557 46.7135 25.6407C46.4368 25.7499 46.1386 25.794 45.8417 25.7697C45.5457 25.7439 45.2566 25.6638 44.9886 25.5336C44.7121 25.396 44.4641 25.2064 44.2582 24.9752C43.8007 24.4867 43.5504 23.8385 43.5611 23.1693C43.5591 22.8571 43.6141 22.5475 43.7233 22.2559C43.8387 21.9965 43.998 21.7595 44.1942 21.5553C44.3984 21.3278 44.6538 21.1527 44.9392 21.0446C45.1509 20.9596 45.3752 20.9098 45.6031 20.8973C45.8031 20.8905 46.0033 20.911 46.1981 20.9581C46.375 21.0112 46.5444 21.087 46.7022 21.1837C46.8525 21.2739 46.9891 21.3854 47.108 21.5147L47.9122 21.0642C47.7423 20.8618 47.5468 20.6826 47.3307 20.5313C47.0979 20.3727 46.8425 20.2508 46.5734 20.17C45.9332 19.9803 45.2492 20.0123 44.6315 20.2608C44.2448 20.4092 43.8948 20.6398 43.6054 20.937C43.3159 21.2306 43.0844 21.5769 42.9235 21.9577C42.7577 22.3462 42.6671 22.7632 42.6564 23.1865C42.6409 23.6298 42.717 24.0721 42.8798 24.4853C43.0358 24.8996 43.2761 25.2769 43.5854 25.5928C43.876 25.9012 44.2237 26.1495 44.6088 26.3235Z" fill="white"/>
<path d="M77.7575 97.7108C77.3991 97.5374 77.0104 97.4371 76.6139 97.4157C76.2277 97.3872 75.8406 97.4462 75.481 97.5884C75.1369 97.719 74.8235 97.9194 74.5603 98.1773C74.3015 98.4366 74.093 98.7423 73.9455 99.0786C73.7964 99.423 73.7103 99.7919 73.6914 100.168C73.6666 100.568 73.7136 100.97 73.8301 101.354L72.8802 101.721L71.9304 99.26L71.0835 99.5869L73.2813 105.28L74.1281 104.953L73.1852 102.511L74.1531 102.137C74.3211 102.492 74.553 102.812 74.837 103.082C75.1016 103.346 75.4123 103.558 75.7533 103.708C76.0899 103.855 76.4489 103.941 76.8143 103.963C77.1825 103.977 77.5493 103.915 77.8919 103.78C78.2526 103.642 78.5786 103.426 78.847 103.147C79.1238 102.86 79.3429 102.522 79.4922 102.151C79.6413 101.767 79.7158 101.358 79.7116 100.946C79.7095 100.034 79.3696 99.1531 78.7583 98.4761C78.475 98.1605 78.1355 97.9008 77.7575 97.7108ZM78.7938 100.942C78.7982 101.246 78.7512 101.548 78.655 101.836C78.5606 102.095 78.416 102.333 78.2296 102.535C78.0509 102.731 77.83 102.884 77.5834 102.981C77.3399 103.074 77.0777 103.108 76.8182 103.079C76.5462 103.064 76.2803 102.99 76.039 102.861C75.7636 102.722 75.516 102.533 75.3086 102.303C75.083 102.043 74.905 101.744 74.7831 101.422C74.6563 101.099 74.587 100.757 74.5784 100.411C74.5776 100.102 74.6338 99.7953 74.7441 99.507C74.8376 99.2503 74.9844 99.0169 75.1747 98.822C75.3527 98.6329 75.5698 98.4853 75.8109 98.3896C76.0583 98.2979 76.3224 98.2596 76.5861 98.2772C76.8569 98.2999 77.1212 98.3739 77.3653 98.4951C77.6299 98.6435 77.8677 98.8359 78.0688 99.0639C78.2949 99.326 78.4734 99.6258 78.5961 99.9498C78.7192 100.267 78.7861 100.603 78.7938 100.942Z" fill="white"/>
<path d="M25.1092 76.1448C24.8798 76.1053 24.6453 76.1079 24.4172 76.1526L24.3858 76.0713C24.5566 75.9558 24.7043 75.8091 24.8212 75.6387C24.9215 75.4804 24.9952 75.3064 25.0394 75.1238C25.0848 74.8947 25.0577 74.6567 24.962 74.4431C24.8776 74.2207 24.7439 74.0203 24.5711 73.8573C24.3924 73.6879 24.1808 73.5576 23.9497 73.4747C23.6912 73.3864 23.42 73.3421 23.1474 73.3434C22.8384 73.3531 22.5337 73.4164 22.2466 73.5304C21.9673 73.6325 21.7084 73.7834 21.4816 73.9761C21.2843 74.1473 21.1154 74.3491 20.9813 74.5739C20.8585 74.7849 20.7735 75.0161 20.7302 75.257C20.6846 75.4959 20.6714 75.7401 20.6912 75.9828L21.6127 75.7827C21.5989 75.4798 21.6594 75.1785 21.7889 74.9054C21.9591 74.6183 22.2277 74.404 22.5446 74.3024C22.7143 74.2341 22.8948 74.1961 23.0778 74.19C23.233 74.1873 23.3878 74.2099 23.5361 74.2569C23.6691 74.3022 23.7923 74.3725 23.8993 74.4642C23.9931 74.5487 24.0668 74.6532 24.1151 74.77C24.1628 74.8855 24.1795 75.0115 24.1635 75.1352C24.1508 75.2749 24.1081 75.41 24.0383 75.5311C23.9625 75.6671 23.8658 75.7902 23.7518 75.8959C23.6211 76.0103 23.4708 76.0999 23.3082 76.1605L22.784 76.3629L23.082 77.1349L23.6018 76.9342C23.7913 76.8556 23.9927 76.8094 24.1977 76.7976C24.366 76.7835 24.5356 76.7987 24.699 76.8427C24.8359 76.8859 24.9637 76.9545 25.0757 77.0448C25.1706 77.1304 25.2451 77.2365 25.2933 77.3551C25.3435 77.4876 25.3614 77.6301 25.3456 77.7707C25.3307 77.9287 25.2827 78.0816 25.2047 78.2193C25.1143 78.3798 24.9942 78.5212 24.8508 78.6361C24.6894 78.7688 24.5075 78.8741 24.3121 78.9478C24.1269 79.0215 23.9301 79.0624 23.7306 79.0685C23.549 79.0816 23.3663 79.0606 23.1919 79.0067C23.0255 78.9598 22.8687 78.8833 22.7289 78.7808C22.601 78.6816 22.4846 78.5681 22.3821 78.4426L21.5823 78.8914C21.7541 79.1064 21.9528 79.2982 22.1733 79.4621C22.3859 79.6165 22.6226 79.7339 22.8736 79.8091C23.1388 79.8892 23.4151 79.9245 23.6913 79.9136C24.0169 79.8957 24.3369 79.8231 24.638 79.6986C24.9556 79.5824 25.2501 79.4108 25.508 79.1916C25.7306 79.0019 25.916 78.7721 26.0546 78.5137C26.1811 78.2823 26.2578 78.0265 26.2796 77.7629C26.3002 77.5061 26.2604 77.2478 26.1635 77.0088C26.0781 76.755 25.9187 76.5327 25.7062 76.3709C25.5258 76.2527 25.322 76.1755 25.1092 76.1448Z" fill="white"/>
<path d="M100.263 47.4651C100.078 47.3427 99.8701 47.2588 99.6525 47.2182C99.4086 47.1783 99.1596 47.1847 98.9184 47.2371L98.9028 47.1964C99.0066 47.1061 99.0899 46.9944 99.1469 46.8687C99.2036 46.7445 99.2393 46.6115 99.2525 46.4752C99.263 46.2891 99.2299 46.1029 99.1558 45.9315C99.079 45.7308 98.9612 45.5482 98.81 45.3958C98.6541 45.2478 98.4711 45.1317 98.2713 45.0539C98.0572 44.9729 97.8303 44.9321 97.6019 44.9336C97.3411 44.9468 97.0843 45.0021 96.8414 45.0975L94.4219 46.0315L96.6196 51.7247L99.4425 50.635C99.7224 50.5289 99.9816 50.3744 100.208 50.1785C100.405 50.0088 100.569 49.8032 100.69 49.5723C100.802 49.3564 100.865 49.1178 100.873 48.8738C100.886 48.6326 100.847 48.3912 100.76 48.1656C100.671 47.886 100.497 47.641 100.263 47.4651ZM95.5712 46.4749L97.144 45.8678C97.3764 45.7611 97.6406 45.7461 97.8845 45.8257C97.9826 45.8622 98.0718 45.9196 98.1459 45.9941C98.2199 46.0685 98.2771 46.1581 98.3135 46.2567C98.3578 46.3588 98.3796 46.4693 98.3771 46.5804C98.3747 46.6916 98.3481 46.8007 98.2993 46.9002C98.1753 47.126 97.9694 47.2947 97.7243 47.3712L96.1516 47.9783L95.5712 46.4749ZM99.8822 49.2669C99.7226 49.5522 99.4603 49.7648 99.1489 49.8612L97.1729 50.624L96.4497 48.7504L98.4256 47.9876C98.721 47.8498 99.0581 47.831 99.3681 47.935C99.4928 47.9843 99.6061 48.0592 99.7007 48.1549C99.7953 48.2506 99.869 48.365 99.9173 48.4908C99.9718 48.6102 100 48.7397 100.001 48.8709C100.002 49.002 99.9754 49.1317 99.9225 49.2513L99.8822 49.2669Z" fill="white"/>
</g>
<defs>
<clipPath id="clip0">
<rect width="92" height="98" fill="white" transform="translate(0 33.1323) rotate(-21.1084)"/>
</clipPath>
</defs>
</svg>
