<svg width="44" height="30" viewBox="0 0 44 30" fill="none" xmlns="http://www.w3.org/2000/svg">
<path d="M41.732 25.1232C41.732 14.2361 35.2827 5.18001 26.043 3.2966" stroke="white" stroke-miterlimit="10"/>
<path d="M18.7202 3.32028C18.5559 3.35429 18.3942 3.39091 18.2325 3.43015C9.30314 5.57776 3.08594 9.38904 3.08594 25.1233" stroke="white" stroke-miterlimit="10"/>
<path d="M37.6741 25.1233H41.6225C42.5952 25.1233 43.3828 25.9918 43.3828 27.0617C43.3828 28.1315 42.5952 29 41.6225 29H3.14314C2.17039 29 1.38281 28.1315 1.38281 27.0617C1.38281 25.9918 2.17039 25.1233 3.14314 25.1233H33.8875H37.6741Z" stroke="white" stroke-miterlimit="10" stroke-linecap="round"/>
<path d="M18.7207 11.1704V2.04634C18.7207 1.46824 19.1458 1 19.67 1H25.097C25.6212 1 26.0463 1.46824 26.0463 2.04634V11.173" stroke="white" stroke-miterlimit="10" stroke-linecap="round"/>
<path d="M14.8516 4.62036V7.55011" stroke="white" stroke-miterlimit="10" stroke-linecap="round"/>
<path d="M29.4922 4.30371V7.23346" stroke="white" stroke-miterlimit="10" stroke-linecap="round"/>
</svg>
