<svg width="21" height="20" viewBox="0 0 21 20" fill="none" xmlns="http://www.w3.org/2000/svg">
<path fill-rule="evenodd" clip-rule="evenodd" d="M19.1514 0H1.28384C0.671878 0 0.175781 0.494031 0.175781 1.10345V18.8966C0.175781 19.506 0.671878 20 1.28384 20H10.9101V12.2655H8.29581V9.23793H10.9101V7.01034C10.9101 4.42759 12.4961 3.02069 14.8091 3.02069C15.5886 3.019 16.3677 3.05813 17.143 3.13793V5.83793H15.5502C14.2897 5.83793 14.0439 6.43103 14.0439 7.3069V9.23448H17.0564L16.6651 12.2621H14.0266V20H19.1514C19.7633 20 20.2594 19.506 20.2594 18.8966V1.10345C20.2594 0.494031 19.7633 0 19.1514 0Z" fill="white"/>
</svg>
