<svg width="72" height="98" viewBox="0 0 72 98" fill="none" xmlns="http://www.w3.org/2000/svg">
<path fill-rule="evenodd" clip-rule="evenodd" d="M4.20757 19.3876C-5.91867 35.8631 3.98966 57.2178 15.3893 73.5088L22.9346 83.4173C30.1735 92.2325 36.0155 98 36.0155 98C76.575 56.7463 71.8293 33.0477 71.8293 33.0477C71.8293 33.0477 70.4742 5.78897 43.3165 0.711696C16.1588 -4.36558 4.20757 19.3876 4.20757 19.3876ZM52.7827 35.5C52.7827 45.165 45.055 53 35.5224 53C25.9898 53 18.2621 45.165 18.2621 35.5C18.2621 25.835 25.9898 18 35.5224 18C45.055 18 52.7827 25.835 52.7827 35.5Z" fill="#253C4D"/>
</svg>
