<svg width="32" height="32" viewBox="0 0 32 32" fill="none" xmlns="http://www.w3.org/2000/svg">
<path d="M0.5 16C0.5 7.43959 7.43959 0.5 16 0.5C24.5604 0.5 31.5 7.43959 31.5 16C31.5 24.5604 24.5604 31.5 16 31.5C7.43959 31.5 0.5 24.5604 0.5 16Z" stroke="white"/>
<path d="M19.9348 24.6153C23.4624 24.1438 24.7707 20.7705 24.6011 19.5216L19.8948 18.0904C19.7591 18.2924 18.6228 19.6058 18.0717 20.2372C15.3921 19.6648 12.7435 15.733 11.7542 13.8388L13.8318 11.9866L12.4326 7.52446C9.75301 6.6152 7.69565 10.373 7.38472 11.9867C8.87716 20.17 16.3733 23.8155 19.9348 24.6153Z" stroke="white" stroke-width="1.20351" stroke-linecap="round" stroke-linejoin="round"/>
</svg>
