<svg width="22" height="20" viewBox="0 0 22 20" fill="none" xmlns="http://www.w3.org/2000/svg">
<path fill-rule="evenodd" clip-rule="evenodd" d="M6.8684 0.0601777C7.93947 0.0115116 8.28144 0 11.0087 0C13.7358 0 14.0778 0.0115116 15.1489 0.0601777C16.2177 0.108725 16.9477 0.277786 17.5864 0.525007C18.2468 0.780524 18.8068 1.12246 19.3651 1.67839C19.9233 2.23436 20.2667 2.79203 20.5233 3.44962C20.7715 4.08569 20.9413 4.81263 20.99 5.87701C21.0389 6.94362 21.0505 7.28416 21.0505 10C21.0505 12.7158 21.0389 13.0564 20.99 14.123C20.9413 15.1874 20.7715 15.9143 20.5233 16.5504C20.2667 17.208 19.9233 17.7656 19.3651 18.3216C18.8068 18.8775 18.2468 19.2195 17.5864 19.475C16.9477 19.7222 16.2177 19.8913 15.1489 19.9398C14.0778 19.9885 13.7358 20 11.0087 20C8.28144 20 7.93947 19.9885 6.8684 19.9398C5.79956 19.8913 5.06958 19.7222 4.43085 19.475C3.77051 19.2195 3.2105 18.8775 2.65221 18.3216C2.09395 17.7656 1.75059 17.208 1.494 16.5504C1.24575 15.9143 1.07598 15.1874 1.02723 14.123C0.978357 13.0564 0.966797 12.7158 0.966797 10C0.966797 7.28416 0.978357 6.94362 1.02723 5.87701C1.07598 4.81263 1.24575 4.08569 1.494 3.44962C1.75059 2.79203 2.09395 2.23436 2.65221 1.67839C3.2105 1.12246 3.77051 0.780524 4.43085 0.525007C5.06958 0.277786 5.79956 0.108725 6.8684 0.0601777ZM16.9331 2.20447C16.5792 2.06752 16.0475 1.90461 15.0684 1.86015C14.0096 1.81204 13.6919 1.80184 11.0107 1.80184C8.32939 1.80184 8.01178 1.81204 6.95291 1.86015C5.97384 1.90461 5.44213 2.06752 5.08828 2.20447C4.61955 2.38587 4.28504 2.60257 3.93366 2.95252C3.58225 3.30243 3.36465 3.63555 3.18248 4.10233C3.04496 4.4547 2.88137 4.98419 2.83672 5.95918C2.78841 7.01364 2.77817 7.32994 2.77817 10.0001C2.77817 12.6702 2.78841 12.9864 2.83672 14.0409C2.88137 15.0159 3.04496 15.5454 3.18248 15.8978C3.36465 16.3645 3.58229 16.6977 3.93366 17.0476C4.28504 17.3975 4.61955 17.6142 5.08828 17.7956C5.44213 17.9326 5.97384 18.0955 6.95291 18.1399C8.01166 18.188 8.32919 18.1982 11.0107 18.1982C13.6921 18.1982 14.0097 18.188 15.0684 18.1399C16.0475 18.0955 16.5792 17.9326 16.9331 17.7956C17.4018 17.6142 17.7363 17.3975 18.0877 17.0476C18.4391 16.6977 18.6567 16.3645 18.8389 15.8978C18.9764 15.5454 19.14 15.0159 19.1846 14.0409C19.2329 12.9864 19.2432 12.6702 19.2432 10.0001C19.2432 7.32994 19.2329 7.01364 19.1846 5.95918C19.14 4.98419 18.9764 4.4547 18.8389 4.10233C18.6567 3.63555 18.4391 3.30243 18.0877 2.95252C17.7363 2.60257 17.4018 2.38587 16.9331 2.20447ZM11.0083 4.8649C8.1603 4.8649 5.85162 7.16396 5.85162 10.0001C5.85162 12.8361 8.1603 15.1352 11.0083 15.1352C13.8562 15.1352 16.1649 12.8361 16.1649 10.0001C16.1649 7.16396 13.8562 4.8649 11.0083 4.8649ZM7.66158 9.99998C7.66158 11.8409 9.1602 13.3333 11.0089 13.3333C12.8575 13.3333 14.3561 11.8409 14.3561 9.99998C14.3561 8.159 12.8575 6.66662 11.0089 6.66662C9.1602 6.66662 7.66158 8.159 7.66158 9.99998ZM16.369 5.86199C17.0346 5.86199 17.5741 5.32476 17.5741 4.66201C17.5741 3.99926 17.0346 3.46199 16.369 3.46199C15.7036 3.46199 15.164 3.99926 15.164 4.66201C15.164 5.32476 15.7036 5.86199 16.369 5.86199Z" fill="white"/>
</svg>
