<svg width="42" height="41" viewBox="0 0 42 41" fill="none" xmlns="http://www.w3.org/2000/svg">
<path d="M20.8275 0.501293L20.8275 0.501293C31.8025 0.439763 40.8079 9.37974 40.8824 20.4196C40.9503 31.4176 32.0005 40.4357 20.938 40.5005C9.96628 40.562 0.951242 31.612 0.883198 20.5792C0.815188 9.58101 9.76501 0.562859 20.8275 0.501293Z" stroke="white"/>
<path d="M29.3828 11L13.3828 31" stroke="white" stroke-miterlimit="10" stroke-linecap="round"/>
<path d="M18.9434 14.4319C18.9434 16.3649 17.3764 17.9319 15.4434 17.9319C13.5104 17.9319 11.9434 16.3649 11.9434 14.4319C11.9434 12.4989 13.5104 10.9319 15.4434 10.9319C17.3764 10.9319 18.9434 12.4989 18.9434 14.4319Z" stroke="white" stroke-miterlimit="10" stroke-linecap="round"/>
<path d="M31.0352 26.4524C31.0352 28.3854 29.4682 29.9524 27.5352 29.9524C25.6022 29.9524 24.0352 28.3854 24.0352 26.4524C24.0352 24.5194 25.6022 22.9524 27.5352 22.9524C29.4682 22.9524 31.0352 24.5194 31.0352 26.4524Z" stroke="white" stroke-miterlimit="10" stroke-linecap="round"/>
</svg>
