<svg width="50" height="42" viewBox="0 0 50 42" fill="none" xmlns="http://www.w3.org/2000/svg">
<path d="M17.9377 28.1965C13.8229 22.275 10.2464 14.5131 13.9016 8.52454C13.9016 8.52454 18.2154 -0.109261 28.0181 1.73623C37.8208 3.58171 38.31 13.4897 38.31 13.4897C38.31 13.4897 40.1363 22.1036 25.4962 37.0985C25.4962 37.0985 23.2741 35.0022 20.6612 31.798L17.9377 28.1965Z" stroke="white" stroke-miterlimit="10" stroke-linecap="round"/>
<path d="M25.3831 20.8221C28.834 20.8221 31.6315 17.9953 31.6315 14.5082C31.6315 11.0212 28.834 8.19434 25.3831 8.19434C21.9323 8.19434 19.1348 11.0212 19.1348 14.5082C19.1348 17.9953 21.9323 20.8221 25.3831 20.8221Z" stroke="white" stroke-miterlimit="10" stroke-linecap="round"/>
<path d="M16.0254 41.4775H35.1589" stroke="white" stroke-miterlimit="10" stroke-linecap="round"/>
</svg>
