<svg width="52" height="42" viewBox="0 0 52 42" fill="none" xmlns="http://www.w3.org/2000/svg">
<path d="M28.4137 36.7024H9.69748C8.92646 36.7024 8.30078 36.0715 8.30078 35.2941V22.8773C8.30078 22.0999 8.92646 21.469 9.69748 21.469H28.4137C29.1847 21.469 29.8104 22.0999 29.8104 22.8773V35.2916C29.8104 36.0715 29.1847 36.7024 28.4137 36.7024Z" stroke="white" stroke-miterlimit="10"/>
<path d="M33.7012 40.4456V21.9434C33.7012 21.6826 33.9106 21.469 34.1717 21.469H42.7834C43.0421 21.469 43.2539 21.6801 43.2539 21.9434V40.4431" stroke="white" stroke-miterlimit="10"/>
<path d="M4.99609 11.7673H46.4364" stroke="white" stroke-miterlimit="10" stroke-linecap="round"/>
<path d="M1.625 40.6171H50.9996" stroke="white" stroke-miterlimit="10" stroke-linecap="round"/>
<path d="M4.99611 11.7672H1.23709C1.17305 11.7672 1.13364 11.6976 1.16566 11.6405L7.1786 0.910282C7.28206 0.728961 7.47174 0.617188 7.67865 0.617188H43.813C43.9879 0.617188 44.148 0.70909 44.2391 0.858121L50.6314 11.4021C50.7275 11.561 50.6142 11.7672 50.427 11.7672H46.4339" stroke="white" stroke-miterlimit="10" stroke-linecap="round"/>
<path d="M1 11.7673C1 15.3068 3.77861 18.1781 7.20508 18.1781C10.6315 18.1781 13.4102 15.3093 13.4102 11.7673" stroke="white" stroke-miterlimit="10" stroke-linecap="round"/>
<path d="M13.4121 11.7673C13.4121 15.3068 16.1907 18.1781 19.6172 18.1781C23.0437 18.1781 25.8223 15.3093 25.8223 11.7673" stroke="white" stroke-miterlimit="10" stroke-linecap="round"/>
<path d="M25.6836 11.7673C25.6836 15.3068 28.4622 18.1781 31.8887 18.1781C35.3151 18.1781 38.0938 15.3093 38.0938 11.7673" stroke="white" stroke-miterlimit="10" stroke-linecap="round"/>
<path d="M38.2344 11.7673C38.2344 15.3068 41.013 18.1781 44.4395 18.1781C47.8659 18.1781 50.6445 15.3093 50.6445 11.7673" stroke="white" stroke-miterlimit="10" stroke-linecap="round"/>
<path d="M3.41406 16.8417V40.4457" stroke="white" stroke-miterlimit="10" stroke-linecap="round"/>
<path d="M48.6484 16.4741V40.6171" stroke="white" stroke-miterlimit="10" stroke-linecap="round"/>
<path d="M33.7012 36.7025H43.2514" stroke="white" stroke-miterlimit="10" stroke-linecap="round"/>
</svg>
