<svg width="42" height="42" viewBox="0 0 42 42" fill="none" xmlns="http://www.w3.org/2000/svg">
<path d="M21.002 40.6179C32.0476 40.6179 41.002 31.6636 41.002 20.6179C41.002 9.57222 32.0476 0.61792 21.002 0.61792C9.95626 0.61792 1.00195 9.57222 1.00195 20.6179C1.00195 31.6636 9.95626 40.6179 21.002 40.6179Z" stroke="white" stroke-miterlimit="10"/>
<path d="M13.1445 2.58836L20.8807 6.04973L29.0743 2.55127" stroke="white" stroke-miterlimit="10"/>
<path d="M20.8815 6.0498V13.7786L14.3691 18.8173L16.3347 26.9615H25.1192L27.5075 18.8173L20.8815 13.7786" stroke="white" stroke-miterlimit="10"/>
<path d="M27.5078 18.8176L35.0808 16.5059L40.3767 22.4817" stroke="white" stroke-miterlimit="10"/>
<path d="M35.0801 16.5059L36.7935 8.57935" stroke="white" stroke-miterlimit="10"/>
<path d="M25.1191 26.9614L29.1146 32.3167L25.1191 39.9268" stroke="white" stroke-miterlimit="10"/>
<path d="M29.1133 32.3167L38.0115 30.5959" stroke="white" stroke-miterlimit="10"/>
<path d="M16.3355 26.9614L12.2461 32.3167L17.0475 40.0108" stroke="white" stroke-miterlimit="10"/>
<path d="M12.2454 32.3167L4.31641 31.4958" stroke="white" stroke-miterlimit="10"/>
<path d="M4.91046 8.6582L6.48538 16.5056L1.22656 22.7336" stroke="white" stroke-miterlimit="10"/>
<path d="M6.48438 16.5059L14.3689 18.8176" stroke="white" stroke-miterlimit="10"/>
</svg>
