<svg width="16" height="16" viewBox="0 0 16 16" fill="none" xmlns="http://www.w3.org/2000/svg">
<path d="M7.87789 1.20436L9.87546 5.40636C9.92649 5.5139 10.0258 5.58862 10.1397 5.60594L14.596 6.27848C14.8894 6.32313 15.007 6.69676 14.7947 6.91183L11.5696 10.1743C11.4866 10.2581 11.4493 10.3784 11.4684 10.4969L12.2321 15.1181C12.2813 15.4161 11.9806 15.643 11.7227 15.5017L7.72388 13.3201C7.62181 13.2645 7.4997 13.2645 7.39763 13.3201L3.39885 15.5017C3.14095 15.6421 2.84022 15.4152 2.88943 15.1181L3.6531 10.4969C3.67224 10.3784 3.63488 10.2581 3.55195 10.1743L0.337793 6.92003C0.121815 6.70132 0.241195 6.3204 0.53919 6.27574L4.9836 5.60503C5.09751 5.58771 5.19685 5.51299 5.24788 5.40545L7.24545 1.20436C7.37485 0.93188 7.74848 0.93188 7.87789 1.20436Z" stroke="white" stroke-width="0.4435" stroke-miterlimit="10" stroke-linecap="round" stroke-linejoin="round"/>
</svg>
